<?xml version="1.0" encoding="UTF-8"?>
<!DOCTYPE svg PUBLIC "-//W3C//DTD SVG 1.1//EN" "http://www.w3.org/Graphics/SVG/1.1/DTD/svg11.dtd">
<!-- Creator: CorelDRAW -->
<svg xmlns="http://www.w3.org/2000/svg" xml:space="preserve" width="10px" height="7px" style="shape-rendering:geometricPrecision; text-rendering:geometricPrecision; image-rendering:optimizeQuality; fill-rule:evenodd; clip-rule:evenodd"
viewBox="0 0 0.796129 0.553371"
 xmlns:xlink="http://www.w3.org/1999/xlink">
 <defs>
  <style type="text/css">
   <![CDATA[
    .fil0 {fill:#2E2E2E}
   ]]>
  </style>
 </defs>
 <g id="Слой_x0020_1">
  <metadata id="CorelCorpID_0Corel-Layer"/>
  <path class="fil0" d="M-0 0.27347l0 0.0111603c0.00106807,0.00525318 0.00370556,0.0102448 0.00786887,0.0142337l0.251826 0.250866c0.00132964,0.00139503 0.00281187,0.00259389 0.00433769,0.00364017l0.0312575 0c0.00156941,-0.00104628 0.00309523,-0.00226693 0.00449027,-0.00364017 0.0108987,-0.0107679 0.0108987,-0.028838 0,-0.0399765l-0.203631 -0.202454 0.671862 0c0.0156941,0 0.0281187,-0.0128823 0.0281187,-0.0284892 0,-0.0155852 -0.0124245,-0.0279007 -0.0281187,-0.0280097l-0.671862 0 0.203631 -0.202825c0.0108987,-0.0107679 0.0108987,-0.028838 0,-0.0396059 -0.0112475,-0.0111385 -0.0293175,-0.0111385 -0.0400854,0l-0.251826 0.250866c-0.00416331,0.00401072 -0.00680079,0.00898053 -0.00786887,0.0142337z"/>
 </g>
</svg>
