<?xml version="1.0" encoding="UTF-8"?>
<!DOCTYPE svg PUBLIC "-//W3C//DTD SVG 1.1//EN" "http://www.w3.org/Graphics/SVG/1.1/DTD/svg11.dtd">
<!-- Creator: CorelDRAW -->
<svg xmlns="http://www.w3.org/2000/svg" xml:space="preserve" width="16px" height="12px" style="shape-rendering:geometricPrecision; text-rendering:geometricPrecision; image-rendering:optimizeQuality; fill-rule:evenodd; clip-rule:evenodd"
viewBox="0 0 0.243423 0.187309"
 xmlns:xlink="http://www.w3.org/1999/xlink">
 <defs>
  <style type="text/css">
   <![CDATA[
    .fil0 {fill:#E24732}
   ]]>
  </style>
 </defs>
 <g id="Слой_x0020_1">
  <metadata id="CorelCorpID_0Corel-Layer"/>
  <path class="fil0" d="M0.00282121 0.103019c-0.00188968,-0.0018675 -0.00282121,-0.00468871 -0.00282121,-0.00655621 0,-0.00186306 0.000931532,-0.00468871 0.00282121,-0.00655177l0.013108 -0.013108c0.00373056,-0.00375718 0.00935524,-0.00375718 0.013108,0l0.000935968 0.000931532 0.0514738 0.0552531c0.00188524,0.0018675 0.00468427,0.0018675 0.00655177,0l0.125455 -0.130166 0.000931532 0c0.00375718,-0.00375718 0.00937742,-0.00375718 0.013108,0l0.013108 0.013108c0.00375718,0.00375274 0.00375718,0.00935081 0,0.013108l0 0 -0.149781 0.15545c-0.00186306,0.00188968 -0.00375274,0.00282121 -0.00655177,0.00282121 -0.00282121,0 -0.00468871,-0.000931532 -0.00655621,-0.00282121l-0.0730232 -0.0786479 -0.0018675 -0.00282121z"/>
 </g>
</svg>
