<?xml version="1.0" encoding="UTF-8"?>
<!DOCTYPE svg PUBLIC "-//W3C//DTD SVG 1.1//EN" "http://www.w3.org/Graphics/SVG/1.1/DTD/svg11.dtd">
<!-- Creator: CorelDRAW -->
<svg xmlns="http://www.w3.org/2000/svg" xml:space="preserve" width="27px" height="27px" style="shape-rendering:geometricPrecision; text-rendering:geometricPrecision; image-rendering:optimizeQuality; fill-rule:evenodd; clip-rule:evenodd"
viewBox="0 0 0.41918 0.418652"
 xmlns:xlink="http://www.w3.org/1999/xlink">
 <defs>
  <style type="text/css">
   <![CDATA[
    .fil0 {fill:#BDBDBD}
   ]]>
  </style>
 </defs>
 <g id="Слой_x0020_1">
  <metadata id="CorelCorpID_0Corel-Layer"/>
  <path class="fil0" d="M0.194849 0l0.0294824 0c0.10888,0.00756648 0.194849,0.0982806 0.194849,0.209062 0,0.115742 -0.0938525,0.20959 -0.20959,0.20959 -0.115764,0 -0.20959,-0.0938261 -0.20959,-0.20959 0,-0.110803 0.0859691,-0.2015 0.194849,-0.209062zm0.0888522 0.264655c0.00510594,0.00510594 0.00510594,0.0134119 0,0.0185222 -0.00513235,0.00510594 -0.0134383,0.00510594 -0.0185222,0l-0.0555183 -0.0555183 -0.0558749 0.0558969c-0.00515876,0.00513235 -0.0135131,0.00513235 -0.0186675,0 -0.00515436,-0.00517637 -0.00515436,-0.0135308 0,-0.0186631l0.0558749 -0.0559013 -0.0554919 -0.0554919c-0.00513235,-0.00513235 -0.00513235,-0.0134163 0,-0.0185222 0.00510594,-0.00513235 0.0134119,-0.00513235 0.0185222,0l0.0554919 0.0554919 0.0563062 -0.0562798c0.00515876,-0.00515876 0.0135087,-0.00515876 0.0186675,0 0.00515436,0.00515436 0.00515436,0.0135087 0,0.0186631l-0.0563062 0.0562842 0.0555183 0.0555183z"/>
 </g>
</svg>
