<?xml version="1.0" encoding="UTF-8"?>
<!DOCTYPE svg PUBLIC "-//W3C//DTD SVG 1.1//EN" "http://www.w3.org/Graphics/SVG/1.1/DTD/svg11.dtd">
<!-- Creator: CorelDRAW -->
<svg xmlns="http://www.w3.org/2000/svg" xml:space="preserve" width="25px" height="23px" style="shape-rendering:geometricPrecision; text-rendering:geometricPrecision; image-rendering:optimizeQuality; fill-rule:evenodd; clip-rule:evenodd"
viewBox="0 0 5.28412 4.85749"
 xmlns:xlink="http://www.w3.org/1999/xlink">
 <defs>
  <style type="text/css">
   <![CDATA[
    .fil0 {fill:white}
   ]]>
  </style>
 </defs>
 <g id="Слой_x0020_1">
  <metadata id="CorelCorpID_0Corel-Layer"/>
  <path class="fil0" d="M5.26327 0.168852c-0.0418155,-0.102772 -0.139817,-0.168852 -0.249597,-0.168852l-4.74323 0c-0.10978,0 -0.207782,0.0660802 -0.249597,0.168852 -0.0421099,0.102418 -0.0191409,0.219266 0.0584239,0.297773l1.87693 1.89925 0 2.37606c0,0.0638422 0.051062,0.115552 0.114256,0.115552 0.0631944,0 0.114256,-0.0517098 0.114256,-0.115552l0 -2.42394c0,-0.0309199 -0.011779,-0.0603085 -0.0335113,-0.0819819l-1.91008 -1.93282c-0.0172562,-0.0175507 -0.0131336,-0.0363971 -0.00930542,-0.0459381 0.00418155,-0.00959989 0.0143704,-0.0258549 0.0386351,-0.0258549l4.74323 0c0.0242648,0 0.0344536,0.016255 0.0386351,0.0258549 0.00382818,0.00989437 0.00795083,0.0287408 -0.00930542,0.0459381l-1.91008 1.93282c-0.0213789,0.0216734 -0.0335113,0.051062 -0.0335113,0.0819819l0 1.73016c0,0.0637833 0.051062,0.115493 0.114256,0.115493 0.0631944,0 0.114256,-0.0517098 0.114256,-0.115493l0 -1.68228 1.87693 -1.89925c0.0775648,-0.0785071 0.100534,-0.195355 0.0584239,-0.297773z"/>
 </g>
</svg>
