<svg xmlns="http://www.w3.org/2000/svg" xmlns:xlink="http://www.w3.org/1999/xlink" xml:space="preserve" width="10px" height="7px" style="shape-rendering:geometricPrecision; text-rendering:geometricPrecision; image-rendering:optimizeQuality; fill-rule:evenodd; clip-rule:evenodd" viewBox="0 -0.0000255765 0.681398 0.473675"  preserveAspectRatio="xMidYMid meet"><rect id="svgEditorBackground" x="0" y="0" width="0.6813979744911194" height="0.47362402081489563" style="fill: none; stroke: none;"/><defs id="svgEditorDefs"><polygon id="svgEditorShapeDefs" style="fill:khaki;stroke:black;vector-effect:non-scaling-stroke;stroke-width:1px;"/></defs>
 <defs>
  <style type="text/css">
   <![CDATA[
    .fil0 {fill:#e96d5d}
   ]]>
  </style>
 </defs>
 <g id="Слой_x0020_1">
  <metadata id="CorelCorpID_0Corel-Layer"/>
  <path class="fil0" d="M0.6813980000000004,0.23406000000000005l0,0.009551950000000003c-0.0009141520000001124,0.004496129999999987,-0.003171550000000134,0.008768390000000043,-0.006734870000000059,0.012182499999999902l-0.2155350000000001,0.21471400000000018c-0.001138030000000012,0.0011939899999999226,-0.0024066400000000154,0.002220080000000013,-0.0037125800000000764,0.0031155800000000067l-0.02675289999999997,0c-0.0013432400000000233,-0.0008954959999999956,-0.0026491699999999785,-0.001940239999999982,-0.0038431699999999513,-0.0031155800000000067c-0.009328080000000127,-0.00921614000000004,-0.009328080000000127,-0.02468209999999993,0,-0.03421540000000012l0.17428600000000005,-0.173278l-0.5750390000000002,0c-0.013432400000000006,0,-0.024066400000000012,-0.011025799999999975,-0.024066400000000012,-0.024383599999999978c0,-0.013339199999999968,0.010634000000000006,-0.023879900000000037,0.024066400000000012,-0.0239732l0.5750390000000002,0l-0.17428600000000005,-0.17359600000000003c-0.009328080000000127,-0.009216140000000005,-0.009328080000000127,-0.024682100000000012,0,-0.033898200000000024c0.009626579999999996,-0.009533300000000005,0.025092500000000018,-0.009533300000000005,0.03430869999999997,0l0.21553500000000014,0.21471400000000007c0.0035633299999999757,0.0034327300000000227,0.0058207200000000014,0.0076863400000000415,0.006734870000000059,0.012182499999999985Z" transform="matrix(-0.99999 -0.00450626 0.00450626 -0.99999 0.680328 0.475171)"/>
 </g>
</svg>