<?xml version="1.0" encoding="UTF-8"?>
<!DOCTYPE svg PUBLIC "-//W3C//DTD SVG 1.1//EN" "http://www.w3.org/Graphics/SVG/1.1/DTD/svg11.dtd">
<!-- Creator: CorelDRAW -->
<svg xmlns="http://www.w3.org/2000/svg" xml:space="preserve" width="10px" height="7px" style="shape-rendering:geometricPrecision; text-rendering:geometricPrecision; image-rendering:optimizeQuality; fill-rule:evenodd; clip-rule:evenodd"
viewBox="0 0 0.681398 0.473624"
 xmlns:xlink="http://www.w3.org/1999/xlink">
 <defs>
  <style type="text/css">
   <![CDATA[
    .fil0 {fill:#e96d5d}
   ]]>
  </style>
 </defs>
 <g id="Слой_x0020_1">
  <metadata id="CorelCorpID_0Corel-Layer"/>
  <path class="fil0" d="M0.681398 0.23406l0 0.00955195c-0.000914152,0.00449613 -0.00317155,0.00876839 -0.00673487,0.0121825l-0.215535 0.214714c-0.00113803,0.00119399 -0.00240664,0.00222008 -0.00371258,0.00311558l-0.0267529 0c-0.00134324,-0.000895496 -0.00264917,-0.00194024 -0.00384317,-0.00311558 -0.00932808,-0.00921614 -0.00932808,-0.0246821 0,-0.0342154l0.174286 -0.173278 -0.575039 0c-0.0134324,0 -0.0240664,-0.0110258 -0.0240664,-0.0243836 0,-0.0133392 0.010634,-0.0238799 0.0240664,-0.0239732l0.575039 0 -0.174286 -0.173596c-0.00932808,-0.00921614 -0.00932808,-0.0246821 0,-0.0338982 0.00962658,-0.0095333 0.0250925,-0.0095333 0.0343087,0l0.215535 0.214714c0.00356333,0.00343273 0.00582072,0.00768634 0.00673487,0.0121825z"/>
 </g>
</svg>
