<?xml version="1.0" encoding="UTF-8"?>
<!DOCTYPE svg PUBLIC "-//W3C//DTD SVG 1.1//EN" "http://www.w3.org/Graphics/SVG/1.1/DTD/svg11.dtd">
<!-- Creator: CorelDRAW -->
<svg xmlns="http://www.w3.org/2000/svg" xml:space="preserve" width="57px" height="32px" style="shape-rendering:geometricPrecision; text-rendering:geometricPrecision; image-rendering:optimizeQuality; fill-rule:evenodd; clip-rule:evenodd"
viewBox="0 0 18.3002 10.345"
 xmlns:xlink="http://www.w3.org/1999/xlink">
 <defs>
  <style type="text/css">
   <![CDATA[
    .fil0 {fill:#c0c2c7;fill-rule:nonzero}
   ]]>
  </style>
 </defs>
 <g id="Слой_x0020_1">
  <metadata id="CorelCorpID_0Corel-Layer"/>
  <g id="_265204248">
   <path id="_265204104" class="fil0" d="M14.0393 4.80759c-0.0704403,0.0161994 -0.145795,0.0296686 -0.217964,0.0421367 -0.0747176,0.0134692 -0.151164,0.022024 -0.226974,0.033309 -0.512467,0.0748997 -1.01674,0.166272 -1.52111,0.285219 -0.136694,0.0323989 -0.272751,0.0651618 -0.40899,0.0973786 -0.240534,0.0576991 -0.480523,0.115216 -0.721148,0.170731 -0.230341,0.0527847 -0.471968,0.109665 -0.684108,0.216781 -0.106024,0.0534217 -0.22388,0.137331 -0.238896,0.265471 -0.0101929,0.0924642 0.0505095,0.16882 0.118857,0.223789 0.148616,0.119403 0.347742,0.176465 0.529121,0.223971 0.067255,0.0172005 0.135147,0.0327629 0.203494,0.0472332 0.0543318,0.0134692 0.110302,0.0259373 0.159719,0.0443209 0.0523296,0.0187477 0.140061,0.0627956 0.157262,0.121587 0.0273024,0.0919182 -0.0695302,0.180287 -0.129778,0.23289 -0.0748086,0.0657988 -0.154987,0.121769 -0.239533,0.170731 -0.0419547,0.0247542 -0.0854566,0.0479613 -0.129049,0.0694392 -0.183563,0.0892789 -0.371313,0.160356 -0.560337,0.223789 -0.0941934,0.0317618 -0.188933,0.0619765 -0.283672,0.0921912 -0.50737,0.16518 -1.02193,0.346468 -1.53431,0.522477 -0.114033,0.0387694 -0.228157,0.0775389 -0.342281,0.116308 -1.74062,0.589732 -3.4918,1.15162 -5.22532,1.75991 -0.7024,0.246541 -1.47206,0.563977 -2.22387,0.563977 -0.445667,-0.0101929 -0.639423,-0.350836 -0.445212,-0.748541 0.179832,-0.368219 0.454767,-0.680922 0.7358,-0.974788 0.301328,-0.315343 0.588276,-0.645793 0.879957,-0.970874 0.622131,-0.692207 1.24426,-1.38369 1.86703,-2.07526 1.24472,-1.38332 2.4918,-2.76537 3.73989,-4.14587 0.181379,-0.200127 0.362121,-0.39989 0.543591,-0.600016 0.217327,-0.240625 0.478976,-0.447305 0.743809,-0.637239 0.523661,-0.376227 1.09847,-0.0980157 1.52857,0.279759 0.483708,0.423643 0.880958,0.958588 1.31306,1.43229 0.439842,0.482707 0.878865,0.96596 1.31807,1.4493 0.0387694,0.0425918 0.0769018,0.0845465 0.115216,0.127047 0.170094,0.187204 0.332999,0.380505 0.50373,0.567253 0.167364,0.182471 0.341189,0.36112 0.502092,0.549507 0.0306697,0.0366763 0.0613394,0.0737165 0.0909171,0.111394 0.0259373,0.0327629 0.0694392,0.0737165 0.0823623,0.112395z"/>
   <path id="_266870008" class="fil0" d="M18.2866 9.72922c-0.0511465,-0.229249 -0.200218,-0.421913 -0.342372,-0.602747 -0.41709,-0.530122 -0.881504,-1.01984 -1.33736,-1.51829 -0.462867,-0.507552 -0.925097,-1.01665 -1.38432,-1.52739 -0.203949,-0.227702 -0.39452,-0.499361 -0.644701,-0.678647 -0.174827,-0.124954 -0.385419,-0.138787 -0.590915,-0.0909171 -0.645247,0.150618 -1.24763,0.437567 -1.81971,0.76738 -0.0877318,0.0506915 -0.175464,0.102839 -0.261466,0.155624 0.0628866,-0.0387694 0.163086,-0.0521476 0.234619,-0.0728065 0.0811792,-0.023025 0.163542,-0.0440479 0.246359,-0.0634326 0.249271,-0.0570621 0.503366,-0.0915541 0.759007,-0.0951945 0.0753547,-0.00163815 0.151164,0 0.225973,0.00364032 0.0387694,0.0033673 0.0774479,0.00655258 0.116217,0.0102839 0.0361302,0.00327629 0.0753547,0.0129231 0.112031,0.0129231 0.153895,0 0.314251,0.0478703 0.464505,0.079177 0.166727,0.0360392 0.339642,0.0764468 0.497814,0.139879 0.117309,0.0473242 0.235711,0.129231 0.242081,0.267473 0.00491444,0.144794 -0.145249,0.241626 -0.251819,0.308426 -0.27175,0.168456 -0.570439,0.284764 -0.870856,0.389697 -0.158172,0.0548779 -0.315798,0.110302 -0.474152,0.166272 -0.0758097,0.0263923 -0.151619,0.0527847 -0.226974,0.0796321 -0.230979,0.0807242 -0.453766,0.172278 -0.678738,0.265926 -0.164634,0.0683471 -0.311521,0.186112 -0.257826,0.384327 0.0419547,0.151619 0.166909,0.243811 0.290589,0.327083 0.0394065,0.0253002 0.07854,0.0516926 0.118402,0.0769928 0.239533,0.155078 0.505459,0.268565 0.770292,0.37732 0.626409,0.256734 1.26893,0.486529 1.91217,0.705586 0.651163,0.222333 1.30624,0.434837 1.9595,0.652801 0.227156,0.0753547 0.481797,0.120586 0.721239,0.078631 0.171186,-0.0290316 0.34392,-0.121678 0.430559,-0.277211 0.0581542,-0.105478 0.0640697,-0.215325 0.0398615,-0.322442z"/>
  </g>
 </g>
</svg>
