<?xml version="1.0" encoding="utf-8"?>
<!-- Generator: Adobe Illustrator 21.0.2, SVG Export Plug-In . SVG Version: 6.00 Build 0)  -->
<svg version="1.1" id="Layer_1" xmlns="http://www.w3.org/2000/svg" xmlns:xlink="http://www.w3.org/1999/xlink" x="0px" y="0px"
	 viewBox="0 0 42 42" style="enable-background:new 0 0 42 42;" xml:space="preserve">
<path fill="#555" d="M22.4,21L41.7,1.7c0.4-0.4,0.4-1,0-1.4s-1-0.4-1.4,0L21,19.6L1.7,0.3c-0.4-0.4-1-0.4-1.4,0s-0.4,1,0,1.4L19.6,21L0.3,40.3
	c-0.4,0.4-0.4,1,0,1.4C0.5,41.9,0.7,42,1,42s0.5-0.1,0.7-0.3L21,22.4l19.3,19.3c0.2,0.2,0.5,0.3,0.7,0.3s0.5-0.1,0.7-0.3
	c0.4-0.4,0.4-1,0-1.4L22.4,21z"/>
</svg>
