<?xml version="1.0" encoding="UTF-8"?>
<!DOCTYPE svg PUBLIC "-//W3C//DTD SVG 1.1//EN" "http://www.w3.org/Graphics/SVG/1.1/DTD/svg11.dtd">
<!-- Creator: CorelDRAW -->
<svg xmlns="http://www.w3.org/2000/svg" xml:space="preserve" width="57px" height="32px" style="shape-rendering:geometricPrecision; text-rendering:geometricPrecision; image-rendering:optimizeQuality; fill-rule:evenodd; clip-rule:evenodd"
viewBox="0 0 8281.6 4681.54"
 xmlns:xlink="http://www.w3.org/1999/xlink">
 <defs>
  <style type="text/css">
   <![CDATA[
    .fil0 {fill:#292E3B;fill-rule:nonzero}
    .fil1 {fill:#E14533;fill-rule:nonzero}
   ]]>
  </style>
 </defs>
 <g id="Слой_x0020_1">
  <metadata id="CorelCorpID_0Corel-Layer"/>
  <g id="_266869312">
   <path id="_265189824" class="fil0" d="M6353.36 2175.64c-31.8772,7.33092 -65.9783,13.4263 -98.638,19.0686 -33.8129,6.09538 -68.4082,9.96676 -102.715,15.0737 -231.913,33.8952 -460.118,75.2449 -688.366,129.074 -61.8598,14.6618 -123.431,29.4884 -185.085,44.0679 -108.852,26.1113 -217.457,52.1402 -326.35,77.263 -104.239,23.8873 -213.585,49.6279 -309.587,98.1026 -47.9805,24.1756 -101.315,62.1481 -108.111,120.137 -4.61272,41.8439 22.8577,76.3981 53.7876,101.274 67.2551,54.0347 157.368,79.8577 239.449,101.356 30.4357,7.78396 61.1597,14.8266 92.0896,21.375 24.5874,6.09538 49.9162,11.7377 72.2796,20.0571 23.6814,8.4841 63.3837,28.4176 71.1676,55.0231 12.3555,41.5968 -31.4653,81.5874 -58.7298,105.392 -33.854,29.7767 -70.138,55.1055 -108.399,77.263 -18.9863,11.2023 -38.6727,21.7045 -58.4003,31.4241 -83.0701,40.4025 -168.035,72.5679 -253.576,101.274 -42.6264,14.3736 -85.5,28.047 -128.374,41.7204 -229.606,74.7507 -462.466,156.791 -694.337,236.443 -51.6048,17.5448 -103.251,35.0896 -154.897,52.6344 -787.704,266.879 -1580.18,521.155 -2364.68,796.435 -317.866,111.57 -666.167,255.223 -1006.4,255.223 -201.683,-4.61272 -289.366,-158.768 -201.477,-338.746 81.3815,-166.634 205.801,-308.146 332.98,-441.132 136.363,-142.706 266.22,-292.249 398.217,-439.361 281.54,-313.253 563.081,-626.176 844.91,-939.141 563.287,-626.012 1127.64,-1251.45 1692.46,-1876.18 82.0816,-90.5658 163.875,-180.967 245.998,-271.533 98.3497,-108.893 216.757,-202.424 336.605,-288.377 236.978,-170.259 497.103,-44.3562 691.743,126.603 218.898,191.716 398.671,433.801 594.217,648.169 199.047,218.445 397.723,437.137 596.482,655.871 17.5448,19.2746 34.8013,38.2608 52.1402,57.4942 76.9747,84.7175 150.696,172.194 227.959,256.706 75.7392,82.5759 154.402,163.422 227.217,248.675 13.8793,16.5975 27.7587,33.3598 41.1438,50.4104 11.7377,14.8266 31.4241,33.3598 37.2724,50.8634z"/>
   <path id="_266131432" class="fil1" d="M8275.46 4402.88c-23.146,-103.745 -90.6069,-190.934 -154.938,-272.768 -188.751,-239.902 -398.918,-461.519 -605.213,-687.089 -209.467,-229.689 -418.645,-460.077 -626.465,-691.207 -92.2955,-103.045 -178.537,-225.982 -291.754,-307.116 -79.1163,-56.547 -174.418,-62.8071 -267.414,-41.1438 -292.001,68.1611 -564.605,198.017 -823.493,347.272 -39.7023,22.94 -79.4046,46.539 -118.324,70.4263 28.4588,-17.5448 73.8035,-23.599 106.175,-32.948 36.737,-10.4198 74.0094,-19.9335 111.488,-28.7059 112.806,-25.823 227.794,-41.4321 343.483,-43.0795 34.1012,-0.741329 68.4082,0 102.262,1.6474 17.5448,1.52384 35.0484,2.96532 52.5932,4.6539 16.3504,1.48266 34.1012,5.84827 50.6987,5.84827 69.6438,0 142.212,21.6633 210.208,35.8309 75.4509,16.3092 153.702,34.5954 225.282,63.3013 53.0874,21.4162 106.669,58.4827 109.552,121.043 2.22399,65.5253 -65.7312,109.346 -113.959,139.576 -122.978,76.2334 -258.147,128.868 -394.099,176.354 -71.5795,24.8345 -142.912,49.9162 -214.574,75.2449 -34.3071,11.9436 -68.6142,23.8873 -102.715,36.0368 -104.527,36.5311 -205.348,77.9632 -307.158,120.342 -74.5036,30.9299 -140.976,84.2233 -116.677,173.924 18.9863,68.6142 75.5332,110.335 131.504,148.019 17.8331,11.4494 35.5426,23.3931 53.5816,34.8425 108.399,70.1792 228.741,121.537 348.59,170.753 283.476,116.183 574.242,220.175 865.337,319.307 294.678,100.615 591.128,196.782 886.754,295.42 102.798,34.1012 218.033,54.5701 326.391,35.5838 77.4689,-13.138 155.638,-55.0643 194.846,-125.449 26.3172,-47.7334 28.9942,-97.4436 18.039,-145.918z"/>
  </g>
 </g>
</svg>
