<?xml version="1.0" encoding="UTF-8"?>
<!DOCTYPE svg PUBLIC "-//W3C//DTD SVG 1.1//EN" "http://www.w3.org/Graphics/SVG/1.1/DTD/svg11.dtd">
<!-- Creator: CorelDRAW -->
<svg xmlns="http://www.w3.org/2000/svg" xml:space="preserve" width="252px" height="41px" style="shape-rendering:geometricPrecision; text-rendering:geometricPrecision; image-rendering:optimizeQuality; fill-rule:evenodd; clip-rule:evenodd"
viewBox="0 0 252.997 40.8338"
 xmlns:xlink="http://www.w3.org/1999/xlink">
 <defs>
  <style type="text/css">
   <![CDATA[
    .fil1 {fill:#292E3B;fill-rule:nonzero}
    .fil0 {fill:#4E4947;fill-rule:nonzero}
    .fil2 {fill:#E14533;fill-rule:nonzero}
   ]]>
  </style>
 </defs>
 <g id="Слой_x0020_1">
  <metadata id="CorelCorpID_0Corel-Layer"/>
  <g id="_267001672">
   <path id="_265203576" class="fil0" d="M173.467 39.307l0 -0.0099605c0,-0.731954 -0.534736,-1.33385 -1.26669,-1.33385 -0.735938,0 -1.26043,0.593361 -1.26043,1.32418l0 0.00967591c0,0.732239 0.532744,1.33755 1.26698,1.33755 0.735369,0 1.26015,-0.597061 1.26015,-1.32759zm-2.75792 0l0 -0.0099605c0,-0.809077 0.601899,-1.53335 1.49777,-1.53335 0.898721,0 1.49066,0.714594 1.49066,1.52367l0 0.00967591c0,0.809077 -0.599622,1.53676 -1.4972,1.53676 -0.900998,0 -1.49123,-0.719148 -1.49123,-1.5268z"/>
   <path id="_265203504" class="fil0" d="M175.256 39.5477l0 -1.73569 0.220554 0 0 1.71292c0,0.701219 0.375938,1.10334 1.00373,1.10334 0.603322,0 0.988935,-0.364554 0.988935,-1.08057l0 -1.73569 0.219131 0 0 1.70808c0,0.854895 -0.492049,1.30625 -1.21632,1.30625 -0.709472,0 -1.21603,-0.44623 -1.21603,-1.27864z"/>
   <path id="_265203432" class="fil0" d="M180.6 39.3514c0.498594,0 0.864856,-0.248443 0.864856,-0.67646l0 -0.0099605c0,-0.396997 -0.314183,-0.647148 -0.851765,-0.647148l-1.01199 0 0 1.33357 0.998896 0zm-1.22144 -1.53676l1.24933 0c0.361139,0 0.655116,0.114688 0.831844,0.289708 0.14087,0.140585 0.225676,0.34008 0.225676,0.550958l0 0.00967591c0,0.498594 -0.369392,0.78318 -0.869694,0.850057l0.978975 1.26669 -0.276048 0 -0.949662 -1.23055 -0.967876 0 0 1.23055 -0.222546 0 0 -2.96709z"/>
   <path id="_265203360" class="fil0" d="M185.292 39.307l0 -0.0099605c0,-0.840097 0.627227,-1.53335 1.48212,-1.53335 0.529898,0 0.850342,0.194657 1.15428,0.47412l-0.153676 0.158514c-0.26125,-0.246451 -0.555511,-0.433139 -1.00373,-0.433139 -0.710895,0 -1.24876,0.578563 -1.24876,1.32418l0 0.00967591c0,0.750452 0.547543,1.33755 1.25189,1.33755 0.430009,0 0.72427,-0.165629 1.02195,-0.464444l0.148554 0.143716c-0.310198,0.31219 -0.650563,0.519938 -1.17818,0.519938 -0.847211,0 -1.47444,-0.675322 -1.47444,-1.5268z"/>
   <path id="_266058952" class="fil0" d="M191.417 39.7521l-0.781757 -1.71947 -0.784603 1.71947 1.56636 0zm-0.882785 -1.95823l0.212301 0 1.38451 2.98843 -0.245313 0 -0.37423 -0.830421 -1.7539 0 -0.376222 0.830421 -0.230514 0 1.38337 -2.98843z"/>
   <path id="_266058880" class="fil0" d="M194.832 39.3514c0.498594,0 0.864856,-0.248443 0.864856,-0.67646l0 -0.0099605c0,-0.396997 -0.312475,-0.647148 -0.851765,-0.647148l-1.01028 0 0 1.33357 0.997188 0zm-1.22087 -1.53676l1.24876 0c0.362847,0 0.655116,0.114688 0.833551,0.289708 0.139162,0.140585 0.223969,0.34008 0.223969,0.550958l0 0.00967591c0,0.498594 -0.369392,0.78318 -0.867986,0.850057l0.979259 1.26669 -0.27804 0 -0.948239 -1.23055 -0.967591 0 0 1.23055 -0.223684 0 0 -2.96709z"/>
   <polygon id="_266058808" class="fil0" points="199.511,39.4032 200.647,39.4032 200.647,39.6419 199.511,39.6419 "/>
   <polygon id="_266058736" class="fil0" points="205.328,39.6072 204.058,37.812 204.333,37.812 205.441,39.4091 206.557,37.812 206.819,37.812 205.549,39.6035 205.549,40.7823 205.328,40.7823 "/>
   <path id="_266058664" class="fil0" d="M210.62 39.307l0 -0.0099605c0,-0.731954 -0.533029,-1.33385 -1.26555,-1.33385 -0.735369,0 -1.26185,0.593361 -1.26185,1.32418l0 0.00967591c0,0.732239 0.534452,1.33755 1.2684,1.33755 0.735654,0 1.25901,-0.597061 1.25901,-1.32759zm-2.75621 0l0 -0.0099605c0,-0.809077 0.599906,-1.53335 1.4972,-1.53335 0.899291,0 1.49094,0.714594 1.49094,1.52367l0 0.00967591c0,0.809077 -0.601899,1.53676 -1.49749,1.53676 -0.900713,0 -1.49066,-0.719148 -1.49066,-1.5268z"/>
   <path id="_266058592" class="fil0" d="M212.408 39.5477l0 -1.73569 0.222261 0 0 1.71292c0,0.701219 0.375938,1.10334 1.00373,1.10334 0.601329,0 0.987512,-0.364554 0.987512,-1.08057l0 -1.73569 0.220554 0 0 1.70808c0,0.854895 -0.493471,1.30625 -1.21774,1.30625 -0.709472,0 -1.21632,-0.44623 -1.21632,-1.27864z"/>
   <path id="_266058520" class="fil0" d="M217.753 39.3514c0.498594,0 0.864571,-0.248443 0.864571,-0.67646l0 -0.0099605c0,-0.396997 -0.311621,-0.647148 -0.85148,-0.647148l-1.0117 0 0 1.33357 0.998611 0zm-1.22087 -1.53676l1.24876 0c0.362847,0 0.655685,0.114688 0.832128,0.289708 0.140301,0.140585 0.225676,0.34008 0.225676,0.550958l0 0.00967591c0,0.498594 -0.369677,0.78318 -0.868271,0.850057l0.977552 1.26669 -0.276048 0 -0.948239 -1.23055 -0.969299 0 0 1.23055 -0.222261 0 0 -2.96709z"/>
   <path id="_266058448" class="fil0" d="M222.292 40.2692l0.181281 -0.114403c0.186119,0.307637 0.385898,0.470989 0.732523,0.470989 0.362847,0 0.64231,-0.276333 0.64231,-0.796271l0 -2.01515 0.220554 0 0 2.00234c0,0.34321 -0.10615,0.604744 -0.27121,0.768097 -0.157091,0.158514 -0.369677,0.240475 -0.605029,0.240475 -0.4431,0 -0.719148,-0.231937 -0.900429,-0.55608z"/>
   <path id="_266058376" class="fil0" d="M228.382 39.307l0 -0.0099605c0,-0.731954 -0.532744,-1.33385 -1.26555,-1.33385 -0.735369,0 -1.26157,0.593361 -1.26157,1.32418l0 0.00967591c0,0.732239 0.534167,1.33755 1.26811,1.33755 0.735938,0 1.25901,-0.597061 1.25901,-1.32759zm-2.75621 0l0 -0.0099605c0,-0.809077 0.600191,-1.53335 1.4972,-1.53335 0.899575,0 1.49123,0.714594 1.49123,1.52367l0 0.00967591c0,0.809077 -0.601899,1.53676 -1.49777,1.53676 -0.900713,0 -1.49066,-0.719148 -1.49066,-1.5268z"/>
   <path id="_266058304" class="fil0" d="M230.171 39.5477l0 -1.73569 0.220554 0 0 1.71292c0,0.701219 0.377645,1.10334 1.00487,1.10334 0.601899,0 0.987512,-0.364554 0.987512,-1.08057l0 -1.73569 0.220554 0 0 1.70808c0,0.854895 -0.493471,1.30625 -1.21774,1.30625 -0.709472,0 -1.21575,-0.44623 -1.21575,-1.27864z"/>
   <path id="_266058232" class="fil0" d="M235.516 39.3514c0.498594,0 0.864571,-0.248443 0.864571,-0.67646l0 -0.0099605c0,-0.396997 -0.31219,-0.647148 -0.85148,-0.647148l-1.01227 0 0 1.33357 0.99918 0zm-1.22144 -1.53676l1.24933 0c0.362847,0 0.655116,0.114688 0.831559,0.289708 0.14087,0.140585 0.225676,0.34008 0.225676,0.550958l0 0.00967591c0,0.498594 -0.369108,0.78318 -0.867702,0.850057l0.977267 1.26669 -0.276333 0 -0.947955 -1.23055 -0.969583 0 0 1.23055 -0.222261 0 0 -2.96709z"/>
   <polygon id="_266058160" class="fil0" points="238.214,37.8143 238.421,37.8143 240.469,40.3952 240.469,37.8143 240.682,37.8143 240.682,40.7794 240.517,40.7794 238.426,38.1427 238.426,40.7794 238.214,40.7794 "/>
   <polygon id="_266058088" class="fil0" points="242.419,37.8143 244.53,37.8143 244.53,38.0167 242.641,38.0167 242.641,39.184 244.343,39.184 244.343,39.3869 242.641,39.3869 242.641,40.5771 244.554,40.5771 244.554,40.7794 242.419,40.7794 "/>
   <polygon id="_266058016" class="fil0" points="247.082,39.6072 245.811,37.812 246.088,37.812 247.196,39.4091 248.311,37.812 248.574,37.812 247.303,39.6035 247.303,40.7823 247.082,40.7823 "/>
   <path id="_267001600" class="fil1" d="M15.7242 1.86489c1.99125,0 3.81885,0.325566 5.48624,0.974137 1.66426,0.651132 3.00636,1.58571 4.02148,2.80545l-4.38774 5.97146c-1.42207,-1.99096 -3.12873,-2.9651 -5.11998,-2.9651 -2.35722,0 -4.18455,0.933156 -5.44498,2.80345 -1.25872,1.8683 -1.90786,4.14414 -1.90786,6.78395 0,1.54502 0.365977,2.80345 1.09679,3.7793 0.730816,0.975844 1.82761,1.46334 3.24826,1.46334 2.07463,0 4.14556,-1.13806 6.21677,-3.41332l2.03393 6.82806c-2.8857,2.23172 -6.38041,3.36921 -10.4429,3.36921 -3.29038,0 -5.85193,-1.05411 -7.7191,-3.1663 -1.8683,-2.1139 -2.80516,-4.79641 -2.80516,-8.08707 0,-3.04905 0.609867,-5.8525 1.82761,-8.45162 1.22144,-2.60083 3.04905,-4.71245 5.48624,-6.33744 2.43748,-1.62669 5.24235,-2.4389 8.41036,-2.4389l0 0.0813915z"/>
   <path id="_266280336" class="fil1" d="M32.2638 19.9856l5.07928 0 -0.570594 -9.833 -4.50869 9.833zm2.88541 -17.7951l8.16675 0 2.96567 27.5869 -9.22314 0 -0.122941 -4.34648 -6.66272 0 -1.86859 4.34648 -7.43622 0 14.1812 -27.5869z"/>
   <path id="_266977784" class="fil1" d="M59.6904 13.892l3.77987 0c0.812207,0 1.54302,-0.284301 2.15289,-0.852903 0.607875,-0.569171 0.935148,-1.42236 0.935148,-2.51944 0,-0.609298 -0.204332,-1.09679 -0.609867,-1.42207 -0.407242,-0.325281 -0.854895,-0.487211 -1.38138,-0.487211l-3.7386 0 -1.13806 5.28162zm8.98124 3.12873c0.851765,0.24389 1.5416,0.69012 2.03023,1.38138 0.487495,0.69012 0.730531,1.74792 0.771796,3.17l0.122372 4.54768c0.0406957,0.895876 0.364839,1.34211 0.974421,1.34211l-0.528191 2.27555 -5.81124 0c-0.974421,0 -1.70467,-0.243605 -2.15147,-0.689836 -0.447653,-0.447653 -0.650563,-1.34211 -0.609298,-2.64181l0.0389882 -4.42815c0,-0.894453 -0.120949,-1.50404 -0.406957,-1.82761 -0.282594,-0.325851 -0.853472,-0.488918 -1.70524,-0.488918l-2.80345 0 -2.19359 10.117 -7.76179 0 5.89348 -27.5874 13.4467 0c2.1139,0 3.7793,0.609867 4.99903,1.78691 1.21774,1.17875 1.82761,2.76276 1.82761,4.75372 0,4.18483 -2.03194,6.90689 -6.05314,8.20802l-0.0802531 0.0813915z"/>
   <path id="_266965608" class="fil2" d="M144.628 11.061l-5.31919 6.95072 3.6518 0 1.66739 -6.95072zm1.19184 -8.65937l7.70402 0 -3.25623 15.5298 3.93127 0 -1.18786 5.60036 -3.97082 0 -1.23254 5.8397 -7.34829 0 1.23254 -5.8397 -10.2101 0 0.914943 -4.32826 13.4231 -16.8019z"/>
   <path id="_267335896" class="fil1" d="M165.537 13.8411l3.6925 0c0.792856,0 1.50887,-0.27804 2.10565,-0.833551 0.595069,-0.557503 0.912097,-1.38963 0.912097,-2.46394 0,-0.594784 -0.198072,-1.07203 -0.595069,-1.38906 -0.397282,-0.318736 -0.833551,-0.477819 -1.35178,-0.477819l-3.65379 0 -1.1096 5.16438zm8.77634 3.05844c0.835543,0.238483 1.50745,0.675037 1.98641,1.35036 0.475543,0.675037 0.71431,1.70837 0.753583,3.09771l0.119526 4.44779c0.0406957,0.875101 0.356301,1.31137 0.9545,1.31137l-0.518515 2.22489 -5.67862 0c-0.953077,0 -1.66739,-0.238767 -2.10565,-0.675322 -0.436554,-0.436554 -0.635764,-1.3108 -0.595069,-2.5829l0.0395574 -4.32826c0,-0.873109 -0.119526,-1.46988 -0.397566,-1.78691 -0.277756,-0.318736 -0.834974,-0.47725 -1.66739,-0.47725l-2.74141 0 -2.14435 9.88992 -7.58506 0 5.75887 -26.9699 13.1461 0c2.06666,0 3.69307,0.595069 4.88634,1.74935 1.18985,1.15115 1.78492,2.70072 1.78492,4.64785 0,4.08978 -1.98413,6.75094 -5.91739,8.02105l-0.0788302 0.0802531z"/>
   <polygon id="_267336304" class="fil1" points="186.084,2.40219 203.758,2.40219 202.367,9.03588 192.281,9.03588 191.444,13.0474 197.718,13.0474 196.608,18.4093 190.293,18.4093 189.379,22.6988 199.545,22.6988 198.117,29.3715 180.323,29.3715 "/>
   <polygon id="_265240104" class="fil1" points="215.804,2.40219 220.929,17.2174 224.068,2.40219 230.222,2.40219 224.504,29.3715 217.076,29.3715 211.276,12.3709 207.661,29.3715 201.544,29.3715 207.307,2.40219 "/>
   <polygon id="_266078920" class="fil1" points="251.567,9.03502 245.371,9.03502 241.079,29.3709 233.454,29.3709 237.744,9.03502 231.667,9.03502 233.095,2.40162 252.997,2.40162 "/>
   <path id="_266079712" class="fil1" d="M117.448 14.6024c-0.214008,0.0492333 -0.4431,0.0899291 -0.662231,0.128064 -0.227099,0.0406957 -0.459037,0.066593 -0.689551,0.101028 -1.5564,0.227384 -3.08804,0.505139 -4.61996,0.866563 -0.414926,0.098182 -0.828429,0.197787 -1.24222,0.295684 -0.730816,0.17502 -1.45964,0.349756 -2.19046,0.518515 -0.699511,0.160222 -1.43374,0.332965 -2.07776,0.658247 -0.322151,0.162214 -0.68016,0.417203 -0.725693,0.806516 -0.0310198,0.280601 0.153392,0.512823 0.361139,0.67959 0.451353,0.362847 1.05581,0.536159 1.60677,0.68016 0.204617,0.0523638 0.410657,0.0998896 0.618405,0.143716 0.164775,0.0409803 0.334957,0.0788302 0.484934,0.134324 0.159083,0.0572017 0.425456,0.190957 0.477819,0.369392 0.083099,0.279463 -0.211163,0.547827 -0.394436,0.707764 -0.226815,0.199495 -0.470705,0.369677 -0.727401,0.518515 -0.127494,0.074846 -0.259542,0.145423 -0.391874,0.210593 -0.557503,0.27121 -1.1281,0.487211 -1.70211,0.679875 -0.286009,0.0964745 -0.573725,0.188111 -0.861441,0.280032 -1.54132,0.501724 -3.10426,1.05211 -4.66009,1.58685 -0.346625,0.117818 -0.693251,0.235637 -1.03988,0.353171 -5.28675,1.79147 -10.6059,3.49813 -15.8713,5.34566 -2.13354,0.748745 -4.47112,1.71321 -6.75464,1.71321 -1.35377,-0.0310198 -1.94201,-1.06577 -1.35235,-2.27384 0.546404,-1.11814 1.38138,-2.06808 2.23485,-2.96054 0.915227,-0.957915 1.78691,-1.96165 2.67283,-2.94916 1.88965,-2.10223 3.7793,-4.20276 5.67094,-6.30329 3.78072,-4.20162 7.56855,-8.39926 11.3592,-12.5923 0.550958,-0.608159 1.10021,-1.21461 1.65117,-1.82249 0.660239,-0.730816 1.45509,-1.35861 2.25933,-1.93575 1.59055,-1.14261 3.33648,-0.297392 4.64273,0.850057 1.46932,1.28661 2.67596,2.91131 3.98818,4.35018 1.33613,1.46619 2.6697,2.93408 4.00384,4.40197 0.117534,0.129486 0.23336,0.256981 0.349756,0.386183 0.516807,0.568602 1.0117,1.1557 1.53022,1.72288 0.50827,0.554088 1.03589,1.09679 1.52481,1.66909 0.0933441,0.111273 0.186404,0.223684 0.276333,0.338088 0.0785456,0.099605 0.210878,0.223969 0.250151,0.341503z"/>
   <path id="_266081656" class="fil2" d="M130.349 29.5514c-0.155384,-0.696666 -0.607875,-1.28177 -1.03988,-1.83102 -1.26698,-1.61019 -2.67738,-3.09771 -4.06189,-4.61143 -1.40585,-1.54188 -2.81,-3.08804 -4.20475,-4.6396 -0.619543,-0.691258 -1.19839,-1.51656 -1.95823,-2.06097 -0.531037,-0.379637 -1.1705,-0.421756 -1.79488,-0.276333 -1.95994,0.457329 -3.78954,1.32901 -5.52722,2.33104 -0.266372,0.153676 -0.532744,0.31219 -0.793994,0.472412 0.190672,-0.117534 0.495179,-0.15823 0.712602,-0.220838 0.246451,-0.0700081 0.496602,-0.13404 0.74846,-0.192949 0.756998,-0.173313 1.52851,-0.27804 2.30514,-0.289139 0.229091,-0.00512254 0.459321,0 0.686421,0.0110988 0.117534,0.0102451 0.235352,0.019921 0.352886,0.0310198 0.10985,0.0102451 0.229091,0.0395574 0.340364,0.0395574 0.46729,0 0.9545,0.145423 1.41098,0.240475 0.506278,0.109281 1.03134,0.232222 1.512,0.424886 0.356301,0.143716 0.715733,0.392444 0.735369,0.812207 0.0147985,0.439969 -0.441108,0.734231 -0.765251,0.93714 -0.825298,0.5114 -1.73256,0.864571 -2.64494,1.18331 -0.480381,0.167052 -0.959054,0.335242 -1.44,0.505139 -0.230514,0.0802531 -0.460744,0.160506 -0.689551,0.241898 -0.701504,0.245313 -1.37825,0.523353 -2.06154,0.807654 -0.500017,0.207748 -0.946247,0.565472 -0.78318,1.16737 0.127494,0.46046 0.506847,0.740492 0.882785,0.993488 0.119526,0.0768381 0.238483,0.157091 0.359432,0.233929 0.727685,0.470989 1.53534,0.815622 2.33958,1.14603 1.90274,0.779765 3.85443,1.47757 5.80811,2.14321 1.97759,0.675037 3.96741,1.32048 5.95182,1.98271 0.689836,0.228807 1.46334,0.365977 2.19074,0.238767 0.519938,-0.0882215 1.04443,-0.369392 1.30767,-0.842089 0.176443,-0.320159 0.194657,-0.653693 0.120949,-0.978975z"/>
  </g>
 </g>
</svg>
