<?xml version="1.0" encoding="UTF-8"?>
<!DOCTYPE svg PUBLIC "-//W3C//DTD SVG 1.1//EN" "http://www.w3.org/Graphics/SVG/1.1/DTD/svg11.dtd">
<!-- Creator: CorelDRAW -->
<svg xmlns="http://www.w3.org/2000/svg" xml:space="preserve" width="18px" height="22px" style="shape-rendering:geometricPrecision; text-rendering:geometricPrecision; image-rendering:optimizeQuality; fill-rule:evenodd; clip-rule:evenodd"
viewBox="0 0 0.362029 0.451428"
 xmlns:xlink="http://www.w3.org/1999/xlink">
 <defs>
  <style type="text/css">
   <![CDATA[
    .fil0 {fill:#171F31}
   ]]>
  </style>
 </defs>
 <g id="Слой_x0020_1">
  <metadata id="CorelCorpID_0Corel-Layer"/>
  <path class="fil0" d="M0.185459 0.451428l-0.00900959 0c-0.00198245,-0.000588451 -0.00386778,-0.00157682 -0.0055303,-0.00296511 -0.0941351,-0.077967 -0.136081,-0.149592 -0.154231,-0.192441 -0.00522179,-0.0112834 -0.00939808,-0.0233381 -0.0122089,-0.0357641 -0.000925526,-0.00371353 -0.00120547,-0.0056617 -0.00120547,-0.0056617l0 5.71312e-006c-0.00315364,-0.0165738 -0.00417629,-0.0339131 -0.00241094,-0.0518123 0.00865538,-0.0894332 0.0835601,-0.159516 0.173702,-0.16267 0.102882,-0.00361641 0.187465,0.0784297 0.187465,0.180198 0,0.0116833 -0.00111406,0.0230582 -0.00324505,0.0341873l0 0c0,0 -0.000371353,0.00203958 -0.00120547,0.00565599 -0.00281657,0.0125232 -0.00689574,0.0244864 -0.0122147,0.0357699 -0.0182077,0.0430312 -0.0601877,0.114662 -0.154317,0.192532 -0.00169108,0.00138829 -0.00359355,0.00237666 -0.00558743,0.00296511zm-0.00446195 -0.181403c-0.0485672,0 -0.0879478,-0.0391977 -0.0879478,-0.0875764 0,-0.0483787 0.0393805,-0.0876107 0.0879478,-0.0876107 0.0485672,0 0.0879192,0.039232 0.0879192,0.0876107 0,0.0483787 -0.039352,0.0875764 -0.0879192,0.0875764z"/>
 </g>
</svg>
