<?xml version="1.0" encoding="UTF-8"?>
<!DOCTYPE svg PUBLIC "-//W3C//DTD SVG 1.1//EN" "http://www.w3.org/Graphics/SVG/1.1/DTD/svg11.dtd">
<!-- Creator: CorelDRAW -->
<svg xmlns="http://www.w3.org/2000/svg" xml:space="preserve" width="19px" height="15px" style="shape-rendering:geometricPrecision; text-rendering:geometricPrecision; image-rendering:optimizeQuality; fill-rule:evenodd; clip-rule:evenodd"
viewBox="0 0 0.350972 0.275152"
 xmlns:xlink="http://www.w3.org/1999/xlink">
 <defs>
  <style type="text/css">
   <![CDATA[
    .fil0 {fill:#171F31}
   ]]>
  </style>
 </defs>
 <g id="Слой_x0020_1">
  <metadata id="CorelCorpID_0Corel-Layer"/>
  <path class="fil0" d="M0.0244632 0l0.301428 0c0.00589442,0.00116317 0.0111549,0.00402393 0.0157709,0.00860324 0.00619832,0.00614068 0.00931057,0.0135231 0.00931057,0.0221264 0,0.0103323 -0.00320133,0.0201773 -0.00962494,0.0295717 -0.00639218,0.00939964 -0.0143457,0.017437 -0.0238816,0.0240859 -0.0490731,0.0340986 -0.079635,0.0552976 -0.0916334,0.0636755 -0.00133083,0.000901192 -0.00410776,0.00288696 -0.00835175,0.00596778 -0.00424399,0.00305986 -0.00775444,0.00554862 -0.0105523,0.00744531 -0.00280313,0.00189669 -0.00619832,0.00398725 -0.0101908,0.00636598 -0.00398725,0.00232109 -0.00772301,0.00410252 -0.0112649,0.00526569 -0.00353665,0.00118936 -0.00679038,0.00175523 -0.00978737,0.00175523l-0.000199101 0 -0.000199101 0c-0.00300223,0 -0.00625595,-0.000565865 -0.0097926,-0.00175523 -0.00353665,-0.00116317 -0.00727241,-0.00294459 -0.0112649,-0.00526569 -0.00398725,-0.00234729 -0.00738244,-0.00446928 -0.0101856,-0.00636598 -0.00280313,-0.00189669 -0.00633978,-0.00438545 -0.0105576,-0.00744531 -0.00424399,-0.00308082 -0.00701568,-0.00506659 -0.00834651,-0.00596778 -0.011857,-0.00837794 -0.0289796,-0.0202925 -0.0513051,-0.0357438 -0.0223307,-0.0154827 -0.0356862,-0.0247933 -0.0401292,-0.0279055 -0.00809501,-0.00548574 -0.0157342,-0.0130463 -0.0229228,-0.0226398 -0.00718858,-0.0095935 -0.0107829,-0.0185059 -0.0107829,-0.0267109 0,-0.0101908 0.00271406,-0.0186788 0.00814741,-0.0254692 0.00410252,-0.00515566 0.00953587,-0.00835175 0.0163158,-0.0095935zm0.317282 0.265956c-0.00611448,0.00614068 -0.0135022,0.0091953 -0.0221316,0.0091953l-0.288261 0c-0.00862944,0 -0.0160171,-0.00305462 -0.0221264,-0.0091953 -0.00614068,-0.00614068 -0.00922674,-0.0135284 -0.00922674,-0.0221316l0 -0.155503c0.00574248,0.00639218 0.012339,0.0120823 0.0197791,0.0170336 0.0472602,0.0321233 0.0797241,0.0546479 0.0973497,0.0675527 0.00744531,0.00549098 0.0134707,0.00976117 0.0181129,0.0128472 0.00464219,0.00305462 0.0108143,0.00619832 0.0185111,0.0093944 0.00769681,0.00320133 0.0148854,0.00478365 0.0215343,0.00478365l0.000199101 0 0.000199101 0c0.00664891,0 0.0138375,-0.00158233 0.0215343,-0.00478365 0.00769681,-0.00319609 0.0138637,-0.00633978 0.0185059,-0.0093944 0.00464219,-0.00308606 0.0106728,-0.00735624 0.0181129,-0.0128472 0.0222154,-0.0160486 0.0547055,-0.0385731 0.0975226,-0.0675527 0.00747151,-0.00509278 0.013979,-0.0107829 0.0196114,-0.0170336l0 0.155503c0,0.00860324 -0.00308606,0.0159909 -0.00922674,0.0221316z"/>
 </g>
</svg>
