<?xml version="1.0" encoding="UTF-8"?>
<!DOCTYPE svg PUBLIC "-//W3C//DTD SVG 1.1//EN" "http://www.w3.org/Graphics/SVG/1.1/DTD/svg11.dtd">
<!-- Creator: CorelDRAW -->
<svg xmlns="http://www.w3.org/2000/svg" xml:space="preserve" width="31px" height="38px" style="shape-rendering:geometricPrecision; text-rendering:geometricPrecision; image-rendering:optimizeQuality; fill-rule:evenodd; clip-rule:evenodd"
viewBox="0 0 1.225 1.5259"
 xmlns:xlink="http://www.w3.org/1999/xlink">
 <defs>
  <style type="text/css">
   <![CDATA[
    .fil0 {fill:#E13D28}
   ]]>
  </style>
 </defs>
 <g id="Слой_x0020_1">
  <metadata id="CorelCorpID_0Corel-Layer"/>
  <path class="fil0" d="M0.632067 1.5259l-0.0395161 0c-0.00503096,-0.00200338 -0.00983683,-0.00481712 -0.01417,-0.00842996 -0.31856,-0.263793 -0.460552,-0.506225 -0.521937,-0.65111 -0.0176252,-0.0383006 -0.0318065,-0.079066 -0.0412606,-0.121058 -0.00312888,-0.012583 -0.00410806,-0.0191559 -0.00410806,-0.0191559l0 0c-0.0106809,-0.0561734 -0.014125,-0.1148 -0.00817109,-0.17533 0.0292854,-0.302657 0.282702,-0.539799 0.587756,-0.550423 0.348206,-0.0122116 0.63434,0.265324 0.63434,0.609726 0,0.0394711 -0.0037479,0.0780868 -0.0109848,0.115723l0 0c0,0 -0.00129432,0.00687677 -0.00411931,0.0190884 -0.00945416,0.0423636 -0.023264,0.0828139 -0.0412494,0.121126 -0.0616996,0.145493 -0.203692,0.387924 -0.522252,0.651414 -0.00440068,0.00361284 -0.00925157,0.00642658 -0.0143275,0.00842996zm-0.0196737 -0.612202c-0.164345,0 -0.297502,-0.132662 -0.297502,-0.296399 0,-0.163726 0.133157,-0.296388 0.297502,-0.296388 0.164334,0 0.297491,0.132662 0.297491,0.296388 0,0.163726 -0.133157,0.296399 -0.297491,0.296399z"/>
 </g>
</svg>
