<?xml version="1.0" encoding="UTF-8"?>
<!DOCTYPE svg PUBLIC "-//W3C//DTD SVG 1.1//EN" "http://www.w3.org/Graphics/SVG/1.1/DTD/svg11.dtd">
<!-- Creator: CorelDRAW -->
<svg xmlns="http://www.w3.org/2000/svg" xml:space="preserve" width="20px" height="20px" style="shape-rendering:geometricPrecision; text-rendering:geometricPrecision; image-rendering:optimizeQuality; fill-rule:evenodd; clip-rule:evenodd"
viewBox="0 0 0.438721 0.438916"
 xmlns:xlink="http://www.w3.org/1999/xlink">
 <defs>
  <style type="text/css">
   <![CDATA[
    .fil0 {fill:#171F31}
   ]]>
  </style>
 </defs>
 <g id="Слой_x0020_1">
  <metadata id="CorelCorpID_0Corel-Layer"/>
  <path class="fil0" d="M0.338832 0.438916l-0.000106834 0 -0.000106834 0 -0.00248859 0c-0.0059324,-0.000119402 -0.0150949,-0.00113118 -0.0274122,-0.00301019 -0.0131719,-0.00203612 -0.0292724,-0.00699445 -0.0483202,-0.0149064 -0.0190478,-0.00788054 -0.0406156,-0.0197642 -0.0647914,-0.0355567 -0.0241444,-0.0157862 -0.0498473,-0.037486 -0.0770835,-0.065093 -0.0216621,-0.0213918 -0.0396289,-0.0418347 -0.0538881,-0.0613601 -0.0142277,-0.0195254 -0.0256715,-0.0375928 -0.0343627,-0.0541646 -0.0086598,-0.0166032 -0.0151452,-0.0316102 -0.019494,-0.04509 -0.00434875,-0.0134862 -0.00726468,-0.025131 -0.00882948,-0.034878 -0.00155851,-0.00977841 -0.00217438,-0.0174516 -0.00186644,-0.0230195 0.000307932,-0.00556791 0.000477609,-0.0086975 0.000477609,-0.00930708 0.000609579,-0.00434247 0.00199842,-0.00876035 0.00417279,-0.0132411 0.00217438,-0.00448072 0.00478866,-0.00815077 0.00791196,-0.0109347l0.0617686 -0.0618378c0.00431105,-0.00434247 0.00926938,-0.00651684 0.0148373,-0.00651684 0.00404082,0 0.00761032,0.00118774 0.0107022,0.00349408 0.0030856,0.00234405 0.00573759,0.00519714 0.00787426,0.00862838l0.0497153 0.0943654c0.00278396,0.00495833 0.00356321,0.010388 0.00230635,0.0162638 -0.00121916,0.00590726 -0.00387114,0.0108656 -0.00787426,0.014875l-0.0227555 0.022787c-0.000641001,0.000609579 -0.00118774,0.00162764 -0.00162764,0.00302276 -0.000477609,0.00138884 -0.000710129,0.00257657 -0.000710129,0.00349408 0.00125058,0.00652313 0.00404082,0.0139575 0.00835187,0.0223094 0.00373289,0.00744064 0.00943905,0.0165026 0.0171813,0.0271986 0.00774229,0.0107022 0.0187461,0.0230258 0.0329738,0.0369832 0.0139575,0.0142277 0.0263125,0.0253321 0.0371781,0.0332064 0.0108342,0.00791196 0.0198647,0.0137187 0.0271671,0.0174579 0.00727096,0.00370147 0.0128389,0.00597639 0.01671,0.00672423l0.00580672 0.00118774c0.000609579,0 0.00162764,-0.000238804 0.00302276,-0.000716413 0.00138884,-0.000471324 0.0024069,-0.00101806 0.00302276,-0.00162764l0.0264507 -0.0269598c0.00559933,-0.00495833 0.0120848,-0.00744064 0.0195254,-0.00744064 0.00525998,0 0.00943905,0.000917511 0.0125309,0.00278396l0.000471324 0 0.0896145 0.0530083c0.00652313,0.00404082 0.0103943,0.00913741 0.0116134,0.0153463 0.000948933,0.00713271 -0.00121916,0.0133165 -0.00648542,0.0186142l-0.0617686 0.0613601c-0.00278396,0.0030856 -0.0064163,0.00573759 -0.0109347,0.00791196 -0.00448072,0.00216809 -0.00889232,0.00356321 -0.0132096,0.00417279 -0.000301648,0 -0.00125686,6.91276e-005 -0.00278396,0.000238804 -0.00121916,0.000106834 -0.00270854,0.000194814 -0.00448701,0.000226236z"/>
 </g>
</svg>
