<?xml version="1.0" encoding="UTF-8"?>
<!DOCTYPE svg PUBLIC "-//W3C//DTD SVG 1.1//EN" "http://www.w3.org/Graphics/SVG/1.1/DTD/svg11.dtd">
<!-- Creator: CorelDRAW -->
<svg xmlns="http://www.w3.org/2000/svg" xml:space="preserve" width="20px" height="20px" style="shape-rendering:geometricPrecision; text-rendering:geometricPrecision; image-rendering:optimizeQuality; fill-rule:evenodd; clip-rule:evenodd"
viewBox="0 0 0.415647 0.415647"
 xmlns:xlink="http://www.w3.org/1999/xlink">
 <defs>
  <style type="text/css">
   <![CDATA[
    .fil0 {fill:#171F31}
   ]]>
  </style>
 </defs>
 <g id="Слой_x0020_1">
  <metadata id="CorelCorpID_0Corel-Layer"/>
  <path class="fil0" d="M0.398278 0.237928c0.00158063,-0.00983372 0.00236803,-0.0198599 0.00236803,-0.0301019 0,-0.106515 -0.0863105,-0.192854 -0.192819,-0.192854 -0.0102128,0 -0.0203032,0.000851556 -0.0301078,0.00239719 -0.0177427,-0.0110002 -0.038705,-0.0173694 -0.0611837,-0.0173694 -0.0643683,0 -0.116535,0.0521724 -0.116535,0.116535 0,0.0224788 0.00636917,0.043406 0.0173403,0.0612187 -0.00151647,0.00980456 -0.00233303,0.0198249 -0.00233303,0.0300728 0,0.106509 0.0863338,0.192819 0.192819,0.192819 0.0102128,0 0.0202974,-0.000787398 0.0301019,-0.00233303 0.0177777,0.0109711 0.0387108,0.0173344 0.0611487,0.0173344 0.0644033,0 0.11657,-0.0521666 0.11657,-0.116535 0,-0.0224729 -0.00636917,-0.043406 -0.0173694,-0.0611837zm-0.0989147 0.0575909c-0.00816561,0.0117585 -0.0201399,0.0209273 -0.035777,0.0275181 -0.0156955,0.00661997 -0.0342664,0.00989788 -0.0556661,0.00989788 -0.0256575,0 -0.0469056,-0.00447359 -0.0637092,-0.0135549 -0.011881,-0.00649166 -0.0215572,-0.0151939 -0.0289646,-0.0260658 -0.00747153,-0.0108778 -0.0112569,-0.0215339 -0.0112569,-0.0319042 0,-0.00611254 0.00233303,-0.0114435 0.00690577,-0.0157888 0.00457274,-0.0043861 0.0104986,-0.00655582 0.0174919,-0.00655582 0.00571009,-5.83258e-006 0.010627,0.00169728 0.0146281,0.00513267 0.00397198,0.00340622 0.00731405,0.00835808 0.0100262,0.0149139 0.00327791,0.00759402 0.00680662,0.0139282 0.010592,0.0189734 0.00375035,0.00501602 0.00901133,0.00917464 0.0158529,0.0124526 0.00677745,0.00327791 0.0157596,0.0048877 0.0270165,0.0048877 0.0154097,0 0.0278622,-0.0033129 0.037381,-0.00989788 0.00958292,-0.00661997 0.0141848,-0.0146923 0.0141848,-0.0244618 0,-0.00775733 -0.00249051,-0.0139632 -0.00756485,-0.0187576 -0.0051385,-0.0048877 -0.0117585,-0.00860305 -0.0199824,-0.0111869 -0.00825893,-0.00261883 -0.0193583,-0.0054243 -0.0332574,-0.00832309 -0.0186293,-0.0041003 -0.0342664,-0.00882469 -0.0468706,-0.0142781 -0.0126742,-0.00545346 -0.0227296,-0.012925 -0.0302011,-0.0223504 -0.00750069,-0.00951877 -0.0112219,-0.0213706 -0.0112219,-0.0353979 0,-0.0133683 0.00394282,-0.0253484 0.0118226,-0.0357479 0.00787981,-0.0104345 0.0192883,-0.0184426 0.0341672,-0.0239894 0.0148147,-0.00557594 0.0322483,-0.00835225 0.0522366,-0.00835225 0.0159813,0 0.0298161,0.00186059 0.0415105,0.00551762 0.0116943,0.00372118 0.0214056,0.00860305 0.029192,0.0147506 0.00772233,0.00611837 0.0134266,0.012575 0.0170195,0.0193525 0.00359287,0.00681245 0.0054243,0.0134616 0.0054243,0.0199241 0,0.00601922 -0.00233303,0.0115077 -0.00690577,0.0162962 -0.00453774,0.00479438 -0.0103703,0.00722073 -0.0171478,0.00722073 -0.00614754,0 -0.0109361,-0.00141732 -0.0142781,-0.00441526 -0.00324875,-0.00289879 -0.00664914,-0.00750069 -0.0103412,-0.013934 -0.00466606,-0.00895301 -0.010242,-0.0159463 -0.0167395,-0.0209273 -0.00633418,-0.00491686 -0.0167687,-0.00747153 -0.0312684,-0.00744237 -0.0134558,0 -0.024176,0.00274714 -0.0323066,0.00810145 -0.00816561,0.00545346 -0.0120443,0.0117935 -0.0120734,0.0192008 2.91629e-005,0.00466023 0.00135316,0.00857389 0.00403614,0.0119101 0.00274131,0.00337706 0.00652082,0.00630502 0.0114085,0.00879553 0.0048877,0.00249051 0.00983372,0.00444442 0.0148439,0.00583258 0.00504518,0.00141732 0.0134324,0.00349955 0.0250626,0.00624086 0.0145931,0.00315542 0.0278331,0.00665497 0.039749,0.0104986 0.011881,0.00384367 0.0220355,0.00848057 0.0303877,0.0140273 0.00844557,0.00551762 0.0150364,0.0125459 0.0197608,0.0210556 0.00473022,0.00850973 0.00709241,0.018915 0.00709241,0.031146 3.49955e-005,0.0147214 -0.00406531,0.0279555 -0.0122601,0.0396849z"/>
 </g>
</svg>
