<?xml version="1.0" encoding="UTF-8"?>
<!DOCTYPE svg PUBLIC "-//W3C//DTD SVG 1.1//EN" "http://www.w3.org/Graphics/SVG/1.1/DTD/svg11.dtd">
<!-- Creator: CorelDRAW -->
<svg xmlns="http://www.w3.org/2000/svg" xml:space="preserve" width="19px" height="20px" style="shape-rendering:geometricPrecision; text-rendering:geometricPrecision; image-rendering:optimizeQuality; fill-rule:evenodd; clip-rule:evenodd"
viewBox="0 0 0.458553 0.473994"
 xmlns:xlink="http://www.w3.org/1999/xlink">
 <defs>
  <style type="text/css">
   <![CDATA[
    .fil0 {fill:#171F31}
   ]]>
  </style>
 </defs>
 <g id="Слой_x0020_1">
  <metadata id="CorelCorpID_0Corel-Layer"/>
  <path class="fil0" d="M0.396554 0.199836c-0.000146869,0.00118831 -7.34346e-005,0.00303085 -4.00553e-005,0.0049802 0.000253683,0.00684945 0.000720995,0.0211358 -0.0147871,0.0235191 -0.00158886,0.000213628 -0.0030709,0.000360497 -0.00443946,0.000360497 -0.016703,0 -0.0176443,-0.0156549 -0.0181117,-0.0231586 -0.000106814,-0.00198941 -0.000213628,-0.00389871 -0.000467311,-0.00541414 -0.0103543,-0.0628467 -0.0315702,-0.0851108 -0.0945237,-0.0992503 -0.00155548,-0.000360497 -0.00339135,-0.000614181 -0.00538076,-0.000901243 -0.00670926,-0.000941299 -0.0150808,-0.00209623 -0.0198407,-0.00858518 -0.00281722,-0.00386533 -0.00375184,-0.00880548 -0.00277716,-0.0147203 0.00100806,-0.00602832 0.00483333,-0.0162024 0.0191931,-0.0162024 0.00364503,0 0.00721662,0.000614181 0.0106814,0.00118831 0.00162224,0.000253683 0.00313766,0.000507367 0.00454627,0.000687615 0.0700633,0.00844498 0.126595,0.0697429 0.126021,0.136555 0,0.000327118 -4.00553e-005,0.000614181 -7.34346e-005,0.000941299zm0.0568918 0.0353554c-0.00324448,0.00342472 -0.00779075,0.00516045 -0.0134919,0.00516045l-0.000574125 -4.00553e-005c-0.0181851,-0.000320442 -0.0184388,-0.0173907 -0.0185856,-0.0255753 -3.33794e-005,-0.00230985 -6.67588e-005,-0.00447284 -0.000287063,-0.006282 -0.0131648,-0.104838 -0.0607171,-0.154159 -0.16408,-0.170181 -0.00148204,-0.000213628 -0.00325115,-0.000360497 -0.00512707,-0.000467311 -0.00768393,-0.000574125 -0.0237728,-0.00176911 -0.0227981,-0.0184722 0.000393877,-0.00721662 0.00364503,-0.0193333 0.0205617,-0.0193333 0.00194936,0 0.00382528,0.000106814 0.00552095,0.000213628 0.00136855,0.000106814 0.00267035,0.000213628 0.00375184,0.000213628 0.00064756,0 0.00104811,-3.33794e-005 0.00126174,-6.67588e-005 0.000433932,-7.34346e-005 0.000834485,-0.00011349 0.00126174,-7.34346e-005 0.106467,0.00360497 0.198721,0.100873 0.197386,0.208134 0,0.00144199 7.34346e-005,0.00310428 0.000146869,0.00483333 0.000320442,0.00710981 0.000720995,0.015982 -0.00494682,0.0219369zm-0.0119431 0.169748c-0.0129512,0.0367974 -0.0550493,0.0690553 -0.0901177,0.0690553 -4.00553e-005,0 -4.00553e-005,0 -4.00553e-005,0l-0.000574125 0c-0.000614181,0 -0.00126174,-7.34346e-005 -0.00184254,-0.000253683 -0.00111487,-0.000287063 -0.0026303,-0.00064756 -0.0043994,-0.00104811 -0.00512707,-0.00115493 -0.0121968,-0.00274379 -0.0189061,-0.00566114 -0.0745762,-0.0323313 -0.138972,-0.0753306 -0.191324,-0.127863 -0.0535405,-0.0536874 -0.0959657,-0.118697 -0.126127,-0.193307 -0.0104277,-0.0257956 -0.010895,-0.0505831 -0.00126174,-0.0717256 0.00995373,-0.0218234 0.0299079,-0.0383863 0.0577263,-0.0477993 0.0110352,-0.00371846 0.0217901,-0.00368508 0.0320375,0.000106814 0.0242067,0.00894568 0.0816393,0.0877744 0.0830479,0.113971 0.00122836,0.0230919 -0.0163759,0.0351418 -0.025869,0.0415974 -0.016663,0.0114024 -0.0197339,0.0254351 -0.0102809,0.0468647 0.0196271,0.0443746 0.053901,0.0779676 0.101921,0.0999045 0.00595488,0.00270373 0.0114024,0.00407228 0.0162024,0.00407228 0.00811787,0 0.0146803,-0.00400553 0.0201278,-0.0123036 0.0122302,-0.0186524 0.0270573,-0.0281054 0.0440875,-0.0281054 0.0126308,0 0.0260159,0.00508702 0.0408764,0.0156216 0.00241667,0.00169567 0.00479996,0.00339135 0.00721662,0.00505364 0.011616,0.00815125 0.0236326,0.0165962 0.0349215,0.0257222 0.0021296,0.00173573 0.00440608,0.00350484 0.00660244,0.00520051 0.0165962,0.012771 0.0373048,0.0286796 0.0259758,0.0608974zm-0.12082 -0.18364c-0.000720995,0.000106814 -0.00144867,0.000146869 -0.00216966,0.000146869 -0.0097401,0 -0.0173506,-0.00793762 -0.0184722,-0.0192666 -0.00241667,-0.0243135 -0.0145,-0.0374116 -0.0380258,-0.0412035 -0.00648895,-0.00108149 -0.0135988,-0.00299079 -0.0173506,-0.00923274 -0.00252348,-0.00429259 -0.00277716,-0.00948642 -0.000720995,-0.0154814 0.0043994,-0.0128043 0.0168833,-0.0130914 0.0229049,-0.0132716 0.0159153,-0.000360497 0.0334128,0.007971 0.0479128,0.0228382 0.0144666,0.0147871 0.022985,0.033366 0.0228048,0.0497486 0.000500691,0.0156549 -0.00516045,0.0243135 -0.0168833,0.0257222z"/>
 </g>
</svg>
