<?xml version="1.0" encoding="UTF-8"?>
<!DOCTYPE svg PUBLIC "-//W3C//DTD SVG 1.1//EN" "http://www.w3.org/Graphics/SVG/1.1/DTD/svg11.dtd">
<!-- Creator: CorelDRAW -->
<svg xmlns="http://www.w3.org/2000/svg" xml:space="preserve" width="23px" height="23px" style="shape-rendering:geometricPrecision; text-rendering:geometricPrecision; image-rendering:optimizeQuality; fill-rule:evenodd; clip-rule:evenodd"
viewBox="0 0 0.601226 0.601015"
 xmlns:xlink="http://www.w3.org/1999/xlink">
 <defs>
  <style type="text/css">
   <![CDATA[
    .fil0 {fill:#171F31}
   ]]>
  </style>
 </defs>
 <g id="Слой_x0020_1">
  <metadata id="CorelCorpID_0Corel-Layer"/>
  <path class="fil0" d="M0.454336 0.394533c-0.0073426,0.0203542 -0.0395626,0.0370371 -0.0542101,0.0383413l-0.00216358 0.000203542c-0.00338483,0.00032416 -0.00721444,0.000731244 -0.0120316,0.000731244 -0.011421,0 -0.031534,-0.0019525 -0.0739914,-0.0189219 -0.0441008,-0.0176252 -0.0875835,-0.0553559 -0.122457,-0.106302 -0.000610627,-0.000859401 -0.00101771,-0.00147003 -0.00126648,-0.00179419 -0.00909155,-0.0119939 -0.0303052,-0.0435656 -0.0303052,-0.0769767 0,-0.0371578 0.0177836,-0.0582432 0.0282698,-0.0648923 0.00991326,-0.00624196 0.0323481,-0.00918202 0.0364642,-0.00934787 0.00338483,-0.000158311 0.00257066,-0.000158311 0.00338483,-0.000158311 0.00869201,0 0.014934,0.00526194 0.0196607,0.0166 0.00196004,0.00468901 0.0204824,0.0493175 0.0215378,0.0513982 0.00126648,0.00248774 0.00514133,0.0101545 0.000572934,0.0192536l-0.000980018 0.0019525c-0.00187711,0.00379945 -0.00350545,0.00710136 -0.00713906,0.0113004 -0.00113833,0.00134941 -0.00232189,0.00277421 -0.00350545,0.00420654 -0.00253297,0.00301544 -0.00509609,0.00611381 -0.00750845,0.00848093 -0.000814169,0.000814169 -0.00236712,0.00240481 -0.00257066,0.00302298 4.52316e-005,0 4.52316e-005,0.000565395 0.000738783,0.00174896 0.00489255,0.00828492 0.0405878,0.0573914 0.0876212,0.0777908 0.00207312,0.000897094 0.00885032,0.0036713 0.00921217,0.0036713 0.000452316,0 0.00118356,-0.000693551 0.0017188,-0.00130418 0.00411608,-0.00465132 0.0173765,-0.0201507 0.0217413,-0.0266414 0.00387484,-0.00578965 0.00885032,-0.0087297 0.0147606,-0.0087297 0.00363361,0 0.00701844,0.00110817 0.0101997,0.0022465 0.00779491,0.0028119 0.0516394,0.0243949 0.0527853,0.0249226 0.00575195,0.00277421 0.0102751,0.00493778 0.0129287,0.0092574 0.00383715,0.00637012 0.00232943,0.0239049 -0.00346776,0.0399395zm-0.148397 0.19139c-0.0488275,0 -0.0970821,-0.0120316 -0.139751,-0.0348359l-0.156019 0.0495588c-0.000776476,0.000248774 -0.00159064,0.000369391 -0.00236712,0.000369391 -0.00208065,0 -0.00407838,-0.000814169 -0.00559364,-0.00232943 -0.00203542,-0.00211835 -0.00272897,-0.00517902 -0.00179419,-0.00799092l0.0507046 -0.149543c-0.0264756,-0.0447868 -0.0404672,-0.0959362 -0.0404672,-0.148194 0,-0.16153 0.132453,-0.292958 0.295287,-0.292958 0.162841,0 0.295287,0.131428 0.295287,0.292958 0,0.161575 -0.132446,0.292965 -0.295287,0.292965zm0 -0.524898c-0.128978,0 -0.233893,0.104055 -0.233893,0.231933 0,0.0491969 0.0153787,0.096185 0.0445456,0.136004 0.00146249,0.00203542 0.00187711,0.00468901 0.0010554,0.00709382l-0.0252091 0.074406 0.0781602 -0.024802c0.000776476,-0.000286467 0.00154541,-0.000369391 0.00236712,-0.000369391 0.00150772,0 0.00297775,0.000407084 0.00428193,0.00126648 0.0382584,0.0250885 0.0827663,0.0383413 0.128691,0.0383413 0.128985,0 0.2339,-0.104018 0.2339,-0.23194 0,-0.127877 -0.104915,-0.231933 -0.2339,-0.231933z"/>
 </g>
</svg>
