<?xml version="1.0" encoding="UTF-8"?>
<!DOCTYPE svg PUBLIC "-//W3C//DTD SVG 1.1//EN" "http://www.w3.org/Graphics/SVG/1.1/DTD/svg11.dtd">
<!-- Creator: CorelDRAW -->
<svg xmlns="http://www.w3.org/2000/svg" xml:space="preserve" width="20px" height="20px" style="shape-rendering:geometricPrecision; text-rendering:geometricPrecision; image-rendering:optimizeQuality; fill-rule:evenodd; clip-rule:evenodd"
viewBox="0 0 0.519948 0.531963"
 xmlns:xlink="http://www.w3.org/1999/xlink">
 <defs>
  <style type="text/css">
   <![CDATA[
    .fil0 {fill:#171F31}
   ]]>
  </style>
 </defs>
 <g id="Слой_x0020_1">
  <metadata id="CorelCorpID_0Corel-Layer"/>
  <path class="fil0" d="M0.175786 0.347673l-0.0421334 0c-0.00664832,0 -0.0120445,-0.00539617 -0.0120445,-0.0120892l0 -0.0420886c0,-0.00668559 0.00539617,-0.0120892 0.0120445,-0.0120892l0.0421334 0c0.00664832,0 0.0120445,0.00540362 0.0120445,0.0120892l0 0.0420886c0,0.00669304 -0.00539617,0.0120892 -0.0120445,0.0120892zm0.105255 0l-0.0421334 0c-0.00664832,0 -0.0120445,-0.00539617 -0.0120445,-0.0120892l0 -0.0420886c0,-0.00668559 0.00539617,-0.0120892 0.0120445,-0.0120892l0.0421334 0c0.00664832,0 0.0120445,0.00540362 0.0120445,0.0120892l0 0.0420886c0,0.00669304 -0.00539617,0.0120892 -0.0120445,0.0120892zm0.105255 0l-0.0421334 0c-0.00664832,0 -0.0120445,-0.00539617 -0.0120445,-0.0120892l0 -0.0420886c0,-0.00668559 0.00539617,-0.0120892 0.0120445,-0.0120892l0.0421334 0c0.00664832,0 0.0120445,0.00540362 0.0120445,0.0120892l0 0.0420886c0,0.00669304 -0.00539617,0.0120892 -0.0120445,0.0120892zm-0.21051 0.105292l-0.0421334 0c-0.00664832,0 -0.0120445,-0.00539617 -0.0120445,-0.0120818l0 -0.0420961c0,-0.00668559 0.00539617,-0.0120818 0.0120445,-0.0120818l0.0421334 0c0.00664832,0 0.0120445,0.00539617 0.0120445,0.0120818l0 0.0420961c0,0.00668559 -0.00539617,0.0120818 -0.0120445,0.0120818zm0.105255 0l-0.0421334 0c-0.00664832,0 -0.0120445,-0.00539617 -0.0120445,-0.0120818l0 -0.0420961c0,-0.00668559 0.00539617,-0.0120818 0.0120445,-0.0120818l0.0421334 0c0.00664832,0 0.0120445,0.00539617 0.0120445,0.0120818l0 0.0420961c0,0.00668559 -0.00539617,0.0120818 -0.0120445,0.0120818zm0.105255 0l-0.0421334 0c-0.00664832,0 -0.0120445,-0.00539617 -0.0120445,-0.0120818l0 -0.0420961c0,-0.00668559 0.00539617,-0.0120818 0.0120445,-0.0120818l0.0421334 0c0.00664832,0 0.0120445,0.00539617 0.0120445,0.0120818l0 0.0420961c0,0.00668559 -0.00539617,0.0120818 -0.0120445,0.0120818zm0.0860033 0.0789973l-0.42465 0c-0.0263026,0 -0.0476488,-0.0216369 -0.0476488,-0.0479767l0 -0.377076c0,-0.0258629 0.0209064,-0.0468886 0.0462774,-0.0476562l0 0.0643292c0,0.0290827 0.0236045,0.0525307 0.0526499,0.0525307l0.0332342 0c0.0290827,0 0.0529704,-0.023448 0.0529704,-0.0525307l0 -0.0645677 0.149684 0 0 0.0645677c0,0.0290827 0.0238877,0.0525307 0.0529704,0.0525307l0.0332342 0c0.029038,0 0.0526425,-0.023448 0.0526425,-0.0525307l7.45328e-006 -0.0643292c0.0254157,0.000767687 0.0462774,0.0217934 0.0462774,0.0476562l0 0.377076c0,0.0262579 -0.0213909,0.0479767 -0.0476488,0.0479767zm-0.0140569 -0.266261c0,-0.0113662 -0.00922715,-0.0205859 -0.0206307,-0.0205859l-0.356207 0c-0.0113588,0 -0.0205859,0.0092197 -0.0205859,0.0205859l0 0.194799c0,0.0113588 0.00922715,0.0206232 0.0205859,0.0206232l0.356207 0c0.0114035,0 0.0206307,-0.00926442 0.0206307,-0.0206232l0 -0.194799zm-0.326565 -0.124067l-0.0328689 0c-0.00995012,0 -0.0180444,-0.00810171 -0.0180444,-0.0180518l0 -0.105494c0,-0.00998739 0.00809426,-0.0180891 0.0180444,-0.0180891l0.0328689 0c0.00998739,0 0.0180444,0.00810171 0.0180444,0.0180891l0 0.105494c0,0.00995012 -0.00805699,0.0180518 -0.0180444,0.0180518zm0.288539 0l-0.0328317 0c-0.00998739,0 -0.0180891,-0.00810171 -0.0180891,-0.0180518l0 -0.105494c0,-0.00998739 0.00810171,-0.0180891 0.0180891,-0.0180891l0.0328317 0c0.00998739,0 0.0180444,0.00810171 0.0180444,0.0180891l0 0.105494c0,0.00995012 -0.00805699,0.0180518 -0.0180444,0.0180518z"/>
 </g>
</svg>
