<?xml version="1.0" encoding="UTF-8"?>
<!DOCTYPE svg PUBLIC "-//W3C//DTD SVG 1.1//EN" "http://www.w3.org/Graphics/SVG/1.1/DTD/svg11.dtd">
<!-- Creator: CorelDRAW -->
<svg xmlns="http://www.w3.org/2000/svg" xml:space="preserve" width="22px" height="24px" style="shape-rendering:geometricPrecision; text-rendering:geometricPrecision; image-rendering:optimizeQuality; fill-rule:evenodd; clip-rule:evenodd"
viewBox="0 0 0.704609 0.789769"
 xmlns:xlink="http://www.w3.org/1999/xlink">
 <defs>
  <style type="text/css">
   <![CDATA[
    .fil0 {fill:#171F31}
   ]]>
  </style>
 </defs>
 <g id="Слой_x0020_1">
  <metadata id="CorelCorpID_0Corel-Layer"/>
  <path class="fil0" d="M0.460368 0.789769l-0.0224037 0c-0.062417,-0.00660012 -0.243086,-0.0364473 -0.331079,-0.16438 -0.108774,-0.158073 -0.0319739,-0.281495 -0.0319739,-0.281495 -0.0178662,-0.00516093 -0.0749114,0.0316256 -0.0749114,0.0316256 0.0321206,-0.115777 0.208564,-0.214073 0.208564,-0.214073 -0.0196079,-0.0070493 -0.0748655,0.00694846 -0.0748655,0.00694846 0.144368,-0.136769 0.320812,-0.0859391 0.320812,-0.0859391 0.0053626,-0.029838 0.092695,-0.0824557 0.092695,-0.0824557 -0.00889183,0.00868099 -0.0125127,0.0561469 -0.0125127,0.0561469 0.00888266,-0.0157853 0.0374832,-0.0316256 0.0374832,-0.0316256 -0.0160878,0.0368415 0,0.115777 0,0.115777 0.0463659,0.0456783 0.0980026,0.203595 0.0980026,0.203595l0.0196079 0.0281055c0.0250255,0.0351456 0.0158403,0.0903575 -0.00888266,0.103512 -0.092695,0.0492442 -0.101578,-0.0403616 -0.101578,-0.0403616 -0.0766531,-0.00873599 -0.133698,-0.0930434 -0.133698,-0.0930434 -0.103411,0.0526268 -0.045825,0.20112 -0.00119169,0.258166 0.053186,0.0678346 0.0208454,0.174537 0.015932,0.189497z"/>
 </g>
</svg>
