<?xml version="1.0" encoding="UTF-8"?>
<!DOCTYPE svg PUBLIC "-//W3C//DTD SVG 1.1//EN" "http://www.w3.org/Graphics/SVG/1.1/DTD/svg11.dtd">
<!-- Creator: CorelDRAW -->
<svg xmlns="http://www.w3.org/2000/svg" xml:space="preserve" width="15px" height="15px" style="shape-rendering:geometricPrecision; text-rendering:geometricPrecision; image-rendering:optimizeQuality; fill-rule:evenodd; clip-rule:evenodd"
viewBox="0 0 0.209193 0.209356"
 xmlns:xlink="http://www.w3.org/1999/xlink">
 <defs>
  <style type="text/css">
   <![CDATA[
    .fil0 {fill:#E55A48}
   ]]>
  </style>
 </defs>
 <g id="Слой_x0020_1">
  <metadata id="CorelCorpID_0Corel-Layer"/>
  <path class="fil0" d="M0.0958782 0l0.016771 0c0.0540499,0.00428388 0.0965439,0.0496273 0.0965439,0.104597 0,0.0578067 -0.0471465,0.104759 -0.104929,0.104759 -0.054359,0 -0.0991159,-0.0413686 -0.104264,-0.0945149l0 -0.0205238c0.00487832,-0.0503921 0.0452404,-0.0903143 0.0958782,-0.0943168zm0.00838548 0.0144685c-0.0496709,0 -0.090128,0.0404611 -0.090128,0.090128 0,0.0496669 0.0404571,0.090128 0.090128,0.090128 0.0496669,0 0.0901241,-0.0404611 0.0901241,-0.090128 0,-0.0496669 -0.0404571,-0.090128 -0.0901241,-0.090128zm0.0523775 0.080197l-0.0476815 0.0476775c-0.00145042,0.00145438 -0.00326542,0.00217959 -0.00525479,0.00217959 -0.00198541,0 -0.0037806,-0.000725209 -0.00523102,-0.00217959l-0.0476815 -0.0476775c-0.00288498,-0.00288498 -0.00288498,-0.00758497 0,-0.01047 0.00288498,-0.00288498 0.00758497,-0.00288498 0.010466,0l0.0424465 0.0424465 0.0424465 -0.0424465c0.00290876,-0.00288498 0.00760479,-0.00288498 0.0104898,0 0.0014306,0.0014306 0.00215978,0.00343979 0.00215978,0.00523498 0,0.00198541 -0.000729172,0.00380041 -0.00215978,0.00523498z"/>
 </g>
</svg>
