<?xml version="1.0" encoding="UTF-8"?>
<!DOCTYPE svg PUBLIC "-//W3C//DTD SVG 1.1//EN" "http://www.w3.org/Graphics/SVG/1.1/DTD/svg11.dtd">
<!-- Creator: CorelDRAW -->
<svg xmlns="http://www.w3.org/2000/svg" xml:space="preserve" width="17px" height="23px" style="shape-rendering:geometricPrecision; text-rendering:geometricPrecision; image-rendering:optimizeQuality; fill-rule:evenodd; clip-rule:evenodd"
viewBox="0 0 0.367227 0.488098"
 xmlns:xlink="http://www.w3.org/1999/xlink">
 <defs>
  <style type="text/css">
   <![CDATA[
    .fil0 {fill:#171F31}
   ]]>
  </style>
 </defs>
 <g id="Слой_x0020_1">
  <metadata id="CorelCorpID_0Corel-Layer"/>
  <path class="fil0" d="M0.0329511 0l0.21973 0c0.0187466,0.00367462 0.0329451,0.0202165 0.0329451,0.0400233l0 0.26626c0.0232465,0.00472882 0.0407883,0.0253308 0.0407883,0.0499809l0 0.0407823c0,0.00459629 0.00563844,0.0102046 0.0102046,0.0102046 0.00459629,0 0.0102046,-0.00560832 0.0102046,-0.0102046l0 -0.2705 -0.0184575 -0.0147648c-0.0191382,-0.0152949 -0.0240899,-0.0413425 -0.0129395,-0.0625349l-0.0261501 -0.0217767c-0.00430112,-0.00362041 -0.00489147,-0.010042 -0.00127106,-0.0143792 0.00362041,-0.00430112 0.010042,-0.00488544 0.0143431,-0.00130118l0.0611975 0.051023c0.00234935,0.00192165 0.00368065,0.00478906 0.00368065,0.00782514l0 0.326409c0,0.0157467 -0.0148611,0.0306138 -0.0306078,0.0306138 -0.0157165,0 -0.0305837,-0.0148672 -0.0305837,-0.0306138l0 -0.0407823c0,-0.013307 -0.00857211,-0.0245176 -0.0204092,-0.0287223l0 0.120528c0,0.0198249 -0.0142226,0.0363788 -0.0330053,0.0400293l-0.21961 0c-0.0187767,-0.00365053 -0.0330114,-0.0202044 -0.0330114,-0.0400293l0 -0.408046c0,-0.0198068 0.0142045,-0.0363487 0.0329511,-0.0400233zm0.201652 0.264452l-0.183581 0c-0.00563844,0 -0.0102046,-0.00456015 -0.0102046,-0.0102046 0,-0.00563844 0.00456617,-0.0102046 0.0102046,-0.0102046l0.183581 0c0.00564446,0 0.0102046,0.00456617 0.0102046,0.0102046 0,0.00564446 -0.00456015,0.0102046 -0.0102046,0.0102046zm0.0102046 -0.0713961c0,0.00563844 -0.00456015,0.0101685 -0.0102046,0.0101685l-0.183581 0c-0.00563844,0 -0.0102046,-0.00453003 -0.0102046,-0.0101685l0 -0.142828c0,-0.00564446 0.00456617,-0.0102046 0.0102046,-0.0102046l0.183581 0c0.00564446,0 0.0102046,0.00456015 0.0102046,0.0102046l0 0.142828zm0.102016 -0.0926547l-0.00571073 -0.00456617c-0.0101022,-0.00808417 -0.0132347,-0.0211923 -0.0092227,-0.0328608l0.0149334 0.0124516 0 0.0249754z"/>
 </g>
</svg>
