<?xml version="1.0" encoding="UTF-8"?>
<!DOCTYPE svg PUBLIC "-//W3C//DTD SVG 1.1//EN" "http://www.w3.org/Graphics/SVG/1.1/DTD/svg11.dtd">
<!-- Creator: CorelDRAW -->
<svg xmlns="http://www.w3.org/2000/svg" xml:space="preserve" width="17px" height="21px" style="shape-rendering:geometricPrecision; text-rendering:geometricPrecision; image-rendering:optimizeQuality; fill-rule:evenodd; clip-rule:evenodd"
viewBox="0 0 0.320264 0.391171"
 xmlns:xlink="http://www.w3.org/1999/xlink">
 <defs>
  <style type="text/css">
   <![CDATA[
    .fil0 {fill:#171F31}
   ]]>
  </style>
 </defs>
 <g id="Слой_x0020_1">
  <metadata id="CorelCorpID_0Corel-Layer"/>
  <path class="fil0" d="M0.30984 0.154818l-0.0911032 -0.0910454c-0.00664622,-0.0066147 -0.0157933,-0.0104238 -0.0251663,-0.0104238l-0.033436 0 0 -0.0266742c0,-0.0146847 -0.0119632,-0.0266479 -0.0266742,-0.0266479l-0.0711908 -2.62697e-005c-0.0147163,0 -0.0266742,0.0119579 -0.0266742,0.0266742l0 0.0266742c-0.0196287,0 -0.0355954,0.0159352 -0.0355954,0.0355376l0 0.266716c0,0.0196024 0.0159667,0.0355376 0.0355954,0.0355376l0.249073 3.15236e-005c0.0196287,0 0.0355954,-0.0159667 0.0355954,-0.0355691l0 -0.175639c0,-0.00934674 -0.00380385,-0.0185254 -0.0104238,-0.0251453zm-0.17638 0.16522c-0.0245464,0 -0.0444903,-0.0199439 -0.0444903,-0.0444325 0,-0.022324 0.0319597,-0.0537162 0.0383537,-0.059795 0.00343607,-0.00323642 0.00880559,-0.00323642 0.0122417,0 0.0064203,0.0060788 0.0383484,0.037471 0.0383484,0.059795 0,0.0244886 -0.0199387,0.0444325 -0.0444535,0.0444325zm0.134506 -0.105594c-0.00502801,0.00502801 -0.0117583,0.0078126 -0.0188616,0.0078126 -0.00712959,0 -0.0138336,-0.00277933 -0.0188931,-0.0078126l-0.0711593 -0.0711277c-0.0103975,-0.0103975 -0.0103975,-0.0272994 0,-0.037697 0.0103975,-0.0103975 0.0273572,-0.0103975 0.0377548,0l0.0711593 0.0711015c0.0103975,0.0104238 0.0103975,0.027331 0,0.0377232z"/>
 </g>
</svg>
