<?xml version="1.0" encoding="UTF-8"?>
<!DOCTYPE svg PUBLIC "-//W3C//DTD SVG 1.1//EN" "http://www.w3.org/Graphics/SVG/1.1/DTD/svg11.dtd">
<!-- Creator: CorelDRAW -->
<svg xmlns="http://www.w3.org/2000/svg" xml:space="preserve" width="24px" height="24px" style="shape-rendering:geometricPrecision; text-rendering:geometricPrecision; image-rendering:optimizeQuality; fill-rule:evenodd; clip-rule:evenodd"
viewBox="0 0 0.917674 0.917685"
 xmlns:xlink="http://www.w3.org/1999/xlink">
 <defs>
  <style type="text/css">
   <![CDATA[
    .fil0 {fill:#171F31}
   ]]>
  </style>
 </defs>
 <g id="Слой_x0020_1">
  <metadata id="CorelCorpID_0Corel-Layer"/>
  <path class="fil0" d="M0.458837 0c-0.25338,0 -0.458837,0.205457 -0.458837,0.458837 0,0.25339 0.205457,0.458848 0.458837,0.458848 0.25339,0 0.458837,-0.205457 0.458837,-0.458848 0,-0.25338 -0.205447,-0.458837 -0.458837,-0.458837zm0.0438815 0.499191c-0.0237954,0.0236779 -0.0621717,0.0235068 -0.0857961,-0.000235175 -0.0236137,-0.0237954 -0.0234961,-0.0621717 0.000288624,-0.0857961 0.0142495,-0.0141746 0.0338652,-0.0197333 0.0523371,-0.0167829l0.158444 -0.107218 -0.108138 0.157813c0.00283279,0.0185254 -0.00283279,0.0380342 -0.0171357,0.0522196zm0.347001 -0.156947c0.00793181,0.0231647 0.0124963,0.0441167 0.0155109,0.0614235 0.000694835,0.00440419 0.00138967,0.00850906 0.00203106,0.0123894 0.000513109,0.00399798 0.000919321,0.00793181 0.00132553,0.0115236 0.000352763,0.00359176 0.000694835,0.00694835 0.0010476,0.00995218 0.000288624,0.00301452 0.000342073,0.00504557 0.000513109,0.00723698 0.000577248,0.00840216 0.000876562,0.0129132 0.000876562,0.0129132l-0.0933217 0.00231968c0,0 5.34489e-005,-0.00445764 0.000224485,-0.0128598 0,-0.00202037 0.000117588,-0.00468212 0,-0.00683077 -5.34489e-005,-0.00213796 -0.000106898,-0.0043935 -0.000171036,-0.00688422 -0.000117588,-0.00254417 -0.000171036,-0.00520592 -0.000235175,-0.0080494 -0.000288624,-0.00306797 -0.000513109,-0.00637111 -0.000801733,-0.00978114 -0.00121863,-0.0137257 -0.00342073,-0.030391 -0.00822044,-0.0491516 -0.00463936,-0.0187499 -0.0116412,-0.0395949 -0.0219996,-0.0613059 -0.0102515,-0.0217644 -0.0242551,-0.0440526 -0.0417436,-0.0657635 -0.00885113,-0.0107112 -0.0184612,-0.0214758 -0.0292365,-0.0314279 -0.00525937,-0.00521661 -0.0109998,-0.00990942 -0.0166654,-0.0148802 -0.00289693,-0.00237313 -0.00596489,-0.00462867 -0.00891527,-0.00701249 -0.00301452,-0.00237313 -0.00601834,-0.00468212 -0.0092039,-0.00683077 -0.0249499,-0.0180016 -0.0534916,-0.0329886 -0.0842889,-0.0438174 -0.015404,-0.00550523 -0.0314386,-0.00955666 -0.0477619,-0.0129132 -0.00816699,-0.00138967 -0.0163874,-0.00289693 -0.0247255,-0.00369866 -0.00415832,-0.000523799 -0.00832734,-0.00110105 -0.0125605,-0.00127208l-0.00625352 -0.000406211 -0.00317486 -0.000235175 -0.0015714 -0.000117588 -0.000801733 -5.34489e-005 -0.000352763 0c0.000117588,-6.41387e-005 -0.000865872,-6.41387e-005 0.000171036,-6.41387e-005 -0.00879769,-5.34489e-005 -0.0184078,-0.000513109 -0.0261579,-5.34489e-005 -0.0080494,0.000117588 -0.016505,0.000865872 -0.0248965,0.00162485 -0.0167295,0.00190278 -0.0334055,0.00456453 -0.0496112,0.00879769 -0.0324755,0.00833802 -0.0633904,0.0213047 -0.0911196,0.0378525 -0.00353832,0.00196692 -0.00694835,0.00411556 -0.0103049,0.00631766 -0.00335659,0.0021914 -0.00677732,0.00434005 -0.0100163,0.00659559 -0.00642456,0.00469281 -0.0129667,0.00915045 -0.018985,0.0141212 -0.012336,0.00961011 -0.0235603,0.0201502 -0.0341004,0.0307972 -0.0207275,0.0215933 -0.0380342,0.0444695 -0.0513537,0.0672708 -0.0133729,0.0227585 -0.0231541,0.0451536 -0.0301559,0.0655925 -0.00718353,0.0204389 -0.0112884,0.0389642 -0.0140143,0.0543575 -0.000630697,0.00382694 -0.00127208,0.00747215 -0.00184933,0.0108822 -0.000406211,0.00347418 -0.000812423,0.00672387 -0.0011545,0.0097277 -0.000758974,0.00608248 -0.00133622,0.011235 -0.00150726,0.015404 -0.000577248,0.00844492 -0.000865872,0.0129026 -0.000865872,0.0129026 0,0 -6.41387e-005,-0.00445764 -0.000181726,-0.0129026 -0.000171036,-0.00423315 0,-0.00943907 0.000235175,-0.0155216 0.000117588,-0.00306797 0.000288624,-0.00636042 0.000406211,-0.00989873 0.000288624,-0.00347418 0.000641387,-0.00717284 0.00093001,-0.0111174 0.00149657,-0.015746 0.00416901,-0.0348487 0.00971701,-0.0562603 0.00550523,-0.0214864 0.0136722,-0.0452712 0.0255913,-0.0700501 0.0119298,-0.0247789 0.0280179,-0.0501885 0.048104,-0.0747964 0.010198,-0.0121543 0.0211871,-0.0243085 0.0335231,-0.0356611 0.00601834,-0.00584731 0.0126246,-0.011235 0.0191026,-0.0167829 0.00335659,-0.00272589 0.00683077,-0.00527006 0.0102515,-0.00793181 0.00335659,-0.00272589 0.00688422,-0.0053342 0.010476,-0.00776078 0.0285417,-0.0203213 0.0611348,-0.0372859 0.0963256,-0.0494402 0.0175419,-0.00613593 0.0358321,-0.0107112 0.0544216,-0.0143564 0.00932148,-0.00156071 0.0185788,-0.003239 0.0284241,-0.00410487 0.0101339,-0.00133622 0.0185254,-0.0015714 0.0276117,-0.00226623l0.0149336 -0.000171036c0.00474626,-0.000171036 0.00949252,6.41387e-005 0.0143029,0.000235175 0.00954597,0.000171036 0.0191026,0.00110105 0.0286593,0.00196692 0.0189209,0.00225554 0.0378525,0.0054411 0.0562603,0.0103584 0.0368263,0.00961011 0.0717925,0.0244903 0.103167,0.0434219 0.00393384,0.00225554 0.00781423,0.00469281 0.011577,0.00723698 0.0037628,0.00249072 0.00757905,0.0049173 0.0112884,0.0075256 0.00729043,0.00527006 0.014645,0.0104225 0.0214223,0.0160881 0.013886,0.0109463 0.0265641,0.0228761 0.0383763,0.0349663 0.0233358,0.0245437 0.042727,0.0504878 0.0576606,0.0763036 0.0149978,0.0258158 0.0259334,0.051172 0.0338118,0.074326z"/>
 </g>
</svg>
