<?xml version="1.0" encoding="UTF-8"?>
<!DOCTYPE svg PUBLIC "-//W3C//DTD SVG 1.1//EN" "http://www.w3.org/Graphics/SVG/1.1/DTD/svg11.dtd">
<!-- Creator: CorelDRAW -->
<svg xmlns="http://www.w3.org/2000/svg" xml:space="preserve" width="22px" height="21px" style="shape-rendering:geometricPrecision; text-rendering:geometricPrecision; image-rendering:optimizeQuality; fill-rule:evenodd; clip-rule:evenodd"
viewBox="0 0 0.66523 0.618849"
 xmlns:xlink="http://www.w3.org/1999/xlink">
 <defs>
  <style type="text/css">
   <![CDATA[
    .fil0 {fill:#171F31}
   ]]>
  </style>
 </defs>
 <g id="Слой_x0020_1">
  <metadata id="CorelCorpID_0Corel-Layer"/>
  <path class="fil0" d="M0.195769 0.151431c-0.0173303,0.0173303 -0.0382369,0.0259912 -0.0627197,0.0259912 -0.0244828,0 -0.0453893,-0.00866092 -0.0627197,-0.0259912 -0.0173303,-0.0173303 -0.0259912,-0.0382369 -0.0259912,-0.0627197 0,-0.0244828 0.00866092,-0.0453893 0.0259912,-0.0627197 0.0173303,-0.0173303 0.0382369,-0.0259912 0.0627197,-0.0259912 0.0244828,0 0.0453893,0.00866092 0.0627197,0.0259912 0.0173303,0.0173303 0.0259912,0.0382369 0.0259912,0.0627197 0,0.0244828 -0.00866092,0.0453893 -0.0259912,0.0627197zm0.311505 0.467419l-0.34931 0c-0.0174151,-0.00334742 -0.0320844,-0.0107033 -0.0439911,-0.0220252 -0.0168727,-0.0160422 -0.0253048,-0.0379148 -0.0253048,-0.0656518 0,-0.0122372 0.00041525,-0.0242031 0.00123727,-0.0358471 0.000822025,-0.0116439 0.00243218,-0.024254 0.00485588,-0.0377793 0.00243218,-0.0134829 0.00545757,-0.0260421 0.00916939,-0.0375928 0.0037203,-0.0115507 0.0086694,-0.0227879 0.0149066,-0.0337878 0.00622875,-0.0109575 0.0133812,-0.0203133 0.0214998,-0.028059 0.00806771,-0.00774568 0.0179235,-0.0138897 0.0296183,-0.0185252 0.0116439,-0.00462707 0.0245252,-0.00692365 0.0386013,-0.00692365 0.00233896,0 0.00728806,0.00247455 0.0148981,0.00743212 0.00766093,0.0049491 0.0160507,0.0104999 0.0253048,0.0166439 0.00926261,0.00609315 0.0216015,0.0116439 0.0370928,0.0166354 0.015449,0.00495757 0.031042,0.00743212 0.0467622,0.00743212 0.0157286,0 0.0313132,-0.00247455 0.0467622,-0.00743212 0.0154998,-0.00499147 0.0278302,-0.0105423 0.0370928,-0.0166354 0.00926261,-0.006144 0.0176524,-0.0116948 0.0253048,-0.0166439 0.00761009,-0.00495757 0.0125677,-0.00743212 0.0148981,-0.00743212 0.0140761,0 0.0269658,0.00229659 0.0386098,0.00692365 0.0116863,0.00463554 0.0215421,0.0107795 0.0296607,0.0185252 0.00806771,0.00774568 0.0152202,0.0171015 0.0214574,0.028059 0.00623722,0.0109999 0.0111863,0.022237 0.0148981,0.0337878 0.00371182,0.0115507 0.00678806,0.0241099 0.00916939,0.0375928 0.00243218,0.0135253 0.00403385,0.0261353 0.00485588,0.0377793 0.0008305,0.0116863 0.0011949,0.0236099 0.0011949,0.0358471 0,0.027737 -0.00838974,0.0496096 -0.0252624,0.0656518 -0.0119067,0.0113219 -0.0265675,0.0186778 -0.0439826,0.0220252zm-0.0805839 -0.303014c-0.0259912,0.0259912 -0.0573468,0.0390165 -0.0940753,0.0390165 -0.0367199,0 -0.068084,-0.0130253 -0.0940753,-0.0390165 -0.0259912,-0.0259997 -0.0389657,-0.0573129 -0.0389657,-0.0940753 0,-0.0367284 0.0129744,-0.068084 0.0389657,-0.0940753 0.0259912,-0.0259489 0.0573553,-0.0389742 0.0940753,-0.0389742 0.0367284,0 0.068084,0.0130253 0.0940753,0.0389742 0.0259997,0.0259912 0.0389742,0.0573468 0.0389742,0.0940753 0,0.0367199 -0.0129744,0.0680755 -0.0389742,0.0940753zm0.16821 -0.164405c-0.0173303,0.0173303 -0.0382284,0.0259912 -0.0627112,0.0259912 -0.0244828,0 -0.0453893,-0.00866092 -0.0627197,-0.0259912 -0.0173303,-0.0173303 -0.0259489,-0.0382369 -0.0259489,-0.0627197 0,-0.0244828 0.00861855,-0.0453893 0.0259489,-0.0627197 0.0173303,-0.0173303 0.0382369,-0.0259912 0.0627197,-0.0259912 0.0244828,0 0.0453809,0.00866092 0.0627112,0.0259912 0.0173303,0.0173303 0.0259997,0.0382369 0.0259997,0.0627197 0,0.0244828 -0.0086694,0.0453893 -0.0259997,0.0627197zm0.0509401 0.189345c-0.0129321,0.00935583 -0.028881,0.0140761 -0.0478215,0.0140761l-0.0464402 0c-0.0237964,-0.0284234 -0.0543723,-0.0432368 -0.0917871,-0.0443809 0.0187117,-0.0270082 0.028059,-0.0565757 0.028059,-0.0887109 0,-0.00669484 -0.000593214,-0.0143049 -0.00173727,-0.0228303 0.0152625,0.0053135 0.0306183,0.00793212 0.0460758,0.00793212 0.01361,-8.47448e-006 0.0273641,-0.00248302 0.0412623,-0.00743212 0.0138388,-0.0049491 0.0251184,-0.00985583 0.0337369,-0.0147117 0.0086694,-0.00486435 0.0137117,-0.00729653 0.0150846,-0.00729653 0.0286522,0 0.0429572,0.0407623 0.0429572,0.122321 0,0.0180168 -0.00646603,0.0316776 -0.0193896,0.0410335zm-0.440402 -0.0303048c-0.0374064,0.00114406 -0.0679908,0.0159575 -0.0917871,0.0443809l-0.0464402 0c-0.018932,0 -0.0348895,-0.00472029 -0.047813,-0.0140761 -0.0129321,-0.00935583 -0.0193981,-0.0230167 -0.0193981,-0.0410335 0,-0.0815584 0.0143049,-0.122321 0.0429572,-0.122321 0.00138134,0 0.00642366,0.00243218 0.0150846,0.00729653 0.0086694,0.00485588 0.0198981,0.00976261 0.0337878,0.0147117 0.0138473,0.0049491 0.0276014,0.00743212 0.0412199,0.00743212 0.015449,-8.47448e-006 0.0308556,-0.00261862 0.0460758,-0.00793212 -0.00114406,0.00852533 -0.00174574,0.0161354 -0.00174574,0.0228303 0,0.0321352 0.00935583,0.0617112 0.028059,0.0887109z"/>
 </g>
</svg>
