<?xml version="1.0" encoding="UTF-8"?>
<!DOCTYPE svg PUBLIC "-//W3C//DTD SVG 1.1//EN" "http://www.w3.org/Graphics/SVG/1.1/DTD/svg11.dtd">
<!-- Creator: CorelDRAW -->
<svg xmlns="http://www.w3.org/2000/svg" xml:space="preserve" width="17px" height="23px" style="shape-rendering:geometricPrecision; text-rendering:geometricPrecision; image-rendering:optimizeQuality; fill-rule:evenodd; clip-rule:evenodd"
viewBox="0 0 0.366964 0.489285"
 xmlns:xlink="http://www.w3.org/1999/xlink">
 <defs>
  <style type="text/css">
   <![CDATA[
    .fil0 {fill:#171F31}
   ]]>
  </style>
 </defs>
 <g id="Слой_x0020_1">
  <metadata id="CorelCorpID_0Corel-Layer"/>
  <path class="fil0" d="M0.326176 0.203861l-0.11213 0 0 -0.0468276c0.0298427,-0.0121458 0.0509727,-0.0413429 0.0509727,-0.0754937 0,-0.0449692 -0.0365763,-0.0815394 -0.0815394,-0.0815394 -0.0449631,0 -0.0815334,0.0365703 -0.0815334,0.0815394 0,0.0341507 0.021124,0.0633478 0.0509727,0.0754937l0 0.158958c0,0.0168521 0.0137146,0.0305969 0.0305607,0.0305969 0.0168521,0 0.0305667,-0.0137448 0.0305667,-0.0305969l0 -0.0101909 0.0407818 0c0.00564754,0 0.0101909,-0.00456751 0.0101909,-0.0101849l0 -0.0305969c0,-0.0112348 0.00917123,-0.0203758 0.020406,-0.0203758 0.0112348,0 0.0203758,0.00914106 0.0203758,0.0203758l0 0.163103c0,0.0112348 -0.00914106,0.0203758 -0.0203758,0.0203758 -0.0112348,0 -0.020406,-0.00914106 -0.020406,-0.0203758l0 -0.0509727c0,-0.00561134 -0.00454338,-0.0101849 -0.0101909,-0.0101849l-0.0407818 0c-0.00561738,0 -0.0101909,0.00457355 -0.0101909,0.0101849l0 0.0509727c0,0.0112348 -0.00914106,0.0203758 -0.0203758,0.0203758 -0.0112348,0 -0.0203758,-0.00914106 -0.0203758,-0.0203758l0 -0.0509727c0,-0.00561134 -0.00457355,-0.0101849 -0.0101849,-0.0101849l-0.0407878 0c-0.00564754,0 -0.0101849,0.00457355 -0.0101849,0.0101849l0 0.0509727c0,0.0112348 -0.00917726,0.0203758 -0.020412,0.0203758 -0.0112348,0 -0.0203758,-0.00914106 -0.0203758,-0.0203758l0 -0.163103c0,-0.0112348 0.00914106,-0.0203758 0.0203758,-0.0203758 0.0112348,0 0.020412,0.00914106 0.020412,0.0203758l0 0.0305969c0,0.00561738 0.00453734,0.0101849 0.0101849,0.0101849l0.0101909 0c0.00564754,0 0.0101849,-0.00456751 0.0101849,-0.0101849l0 -0.0815696c0,-0.00561738 -0.00453734,-0.0101849 -0.0101849,-0.0101849l-0.0815394 0c-0.0224997,0 -0.0407818,0.0183183 -0.0407818,0.0407818l0 0.203855c0,0.0224997 0.0182821,0.0407878 0.0407818,0.0407878l0.285394 0c0.0224997,0 0.0407878,-0.0182881 0.0407878,-0.0407878l0 -0.203855c0,-0.0224635 -0.0182881,-0.0407818 -0.0407878,-0.0407818zm-0.168165 -0.142697c-0.00845925,0 -0.0153135,-0.00686032 -0.0153135,-0.0152834 0,-0.00842908 0.00685428,-0.0152834 0.0153135,-0.0152834 0.00842305,0 0.0152834,0.00686032 0.0152834,0.0152834 0,0.00842305 -0.00686032,0.0152834 -0.0152834,0.0152834z"/>
 </g>
</svg>
